<svg width="652" height="448" viewBox="0 0 652 448" fill="none" xmlns="http://www.w3.org/2000/svg">
<path d="M613.656 24.4663C617.657 23.7701 621.659 23.0739 626.35 22.3192C627.272 22.0095 627.505 21.7582 627.737 21.5069C627.737 21.5069 628.134 21.4879 628.732 21.4683C636.442 20.2871 643.553 19.1255 650.664 17.9639C650.74 18.3996 650.816 18.8354 650.892 19.2711C644.312 21.2207 637.731 23.1703 631.15 25.12C631.281 25.5982 631.412 26.0765 631.543 26.5547C638.265 25.7625 644.988 24.9701 651.71 24.1778C651.776 24.5274 651.842 24.877 651.909 25.2266C648.604 26.5348 645.299 27.8429 641.994 29.1511C641.994 29.1511 641.698 29.0968 641.187 29.1781C636.753 30.5478 632.831 31.8362 628.909 33.1246C628.909 33.1246 628.652 33.0228 628.158 33.1136C609.433 40.5162 591.202 47.8281 572.97 55.14C572.97 55.14 572.676 55.1017 572.194 55.206C560.908 60.6012 550.104 65.8922 539.301 71.1833C539.301 71.1833 539.469 71.2546 539.068 71.2372C537.572 71.8997 536.476 72.5795 535.38 73.2593C535.38 73.2593 535.484 73.3239 535.082 73.3305C529.94 76.0286 525.199 78.7201 520.465 81.379C520.472 81.3464 520.536 81.3654 520.208 81.3803C519.075 82.0635 518.269 82.7318 517.466 83.3713C517.468 83.3426 517.524 83.3581 517.17 83.3553C514.697 84.7051 512.578 86.0576 510.465 87.3798C510.471 87.3495 510.527 87.3752 510.195 87.3431C509.419 87.3405 508.975 87.37 508.23 87.4072C507.437 87.7116 506.944 88.0082 506.087 88.3218C504.293 89.3302 502.863 90.3216 500.998 91.3224C497.716 91.5455 493.742 90.1447 494.355 95.7906C493.749 96.617 493.31 97.2032 492.521 97.7495C491.291 98.0121 490.411 98.3145 489.409 98.2841C489.888 95.8669 490.66 93.8114 491.016 91.6861C491.206 90.5552 490.689 89.3005 490.459 88.108C490.379 87.6974 490.2 87.306 490.062 86.8933C491.539 86.4361 492.844 86.0321 492.783 86.0511C492.259 80.6457 491.806 75.966 491.302 70.7652C490.896 70.5262 489.716 69.8312 487.428 68.4844C490.434 67.6547 492.318 67.1346 494.218 66.6101C494.581 63.605 494.916 60.8415 495.292 58.1069C495.334 58.1359 495.251 58.1958 495.497 58.1595C496.07 57.9985 496.306 57.7772 496.763 57.266C531.078 43.4338 564.725 28.6314 601.967 25.2577C598.81 26.7165 595.654 28.1753 592.498 29.6341C592.715 30.2226 592.932 30.8111 593.15 31.3996C599.985 29.0885 606.821 26.7774 613.656 24.4663Z" fill="#078ACC"/>
<path d="M532.289 77.658C537.838 75.7046 543.439 73.8855 548.926 71.7721C563.92 65.9972 578.749 59.7702 593.871 54.3612C604.309 50.6277 615.128 47.9574 625.776 44.812C625.953 45.2058 626.13 45.5997 626.307 45.9935C620.573 48.7686 614.748 51.3728 609.12 54.3499C589.74 64.6024 569.998 74.2638 551.19 85.4838C521.456 103.221 492.898 122.829 467.673 146.73C448.714 164.694 429.774 182.762 412.046 201.913C398.648 216.387 386.816 232.373 374.931 248.17C355.083 274.552 338.041 302.816 323.202 332.227C310.71 356.985 300.141 382.713 288.681 407.994C284.779 416.602 279.22 423.963 271.452 429.979C271.153 430.134 271.124 430.135 271.146 429.919C271.168 429.703 271.059 429.281 271.279 429.018C273.154 426.927 274.809 425.099 276.677 423.172C277.158 422.87 277.305 422.601 277.375 421.906C278.241 420.178 279.15 418.852 279.872 417.432C283.101 411.086 286.276 404.713 289.514 398.052C290.031 395.875 290.231 393.87 291.028 392.14C294.086 385.499 297.337 378.946 300.653 372.058C302.786 367.1 304.51 362.303 306.829 357.813C315.081 341.835 322.912 325.593 332.053 310.131C347.447 284.09 362.055 257.49 381.86 234.297C394.401 219.611 406.025 204.109 419.039 189.869C431.123 176.647 444.373 164.472 457.351 152.09C473.409 136.771 490.277 122.404 508.977 110.33C528.985 97.4111 549.006 84.5116 569.011 71.5866C573.213 68.8722 577.367 66.0843 581.701 63.1089C582.373 62.736 582.886 62.5844 583.573 62.6435C584.347 62.6921 584.948 62.5302 585.901 62.324C589.197 60.6895 592.14 59.0992 595.083 57.509C593.016 56.7652 591.287 56.9482 589.703 57.5271C578.811 61.5088 567.754 65.1234 557.123 69.7188C542.054 76.2323 527.328 83.5353 512.405 90.3911C509.021 91.946 505.429 93.0499 502.242 94.1937C502.875 93.1335 503.2 92.241 503.494 91.347C503.463 91.3456 503.466 91.4079 503.77 91.7564C504.865 91.5015 505.654 90.8982 506.455 90.3239C506.467 90.3529 506.42 90.3114 506.826 90.4594C507.538 89.9024 507.844 89.1975 508.085 88.4719C508.02 88.4512 508.006 88.5871 508.425 88.8818C509.404 88.576 509.966 87.9756 510.527 87.3751C510.527 87.3751 510.471 87.3494 510.762 87.729C515.934 87.4689 517.151 86.575 517.524 83.358C517.524 83.358 517.469 83.3425 517.823 83.7275C518.964 83.1968 519.75 82.2811 520.536 81.3654C520.536 81.3654 520.472 81.3463 520.767 81.7394C523.849 81.348 526.637 80.5635 529.832 79.8219C530.895 79.1215 531.549 78.3781 532.229 77.6253C532.254 77.6158 532.289 77.658 532.289 77.658Z" fill="#E0C434"/>
<path d="M85.5282 182.357C85.1574 181.058 84.7866 179.758 84.2998 178.052C97.1111 179.196 109.708 181.508 122.239 186.574C128.862 190.735 135.116 194.321 141.298 197.865C139.441 199.64 137.062 200.821 136.856 202.303C136.004 208.446 130.466 211.281 127.524 215.883C125.578 218.927 124.414 220.975 124.888 224.576C125.3 227.697 124.613 231.036 123.992 234.196C123.494 236.727 121.012 239.727 121.78 241.48C123.78 246.043 122.516 249.334 119.999 251.85C120.996 254.487 121.73 256.426 122.057 258.366C115.595 256.356 109.54 254.345 103.439 251.981C100.786 249.763 98.3181 247.646 95.5344 246.098C92.158 244.221 91.1386 242.388 93.1975 238.605C95.1521 235.015 96.7695 230.959 97.323 226.941C98.8942 215.534 102.381 204.865 107.481 194.584C108.764 191.998 108.941 188.778 109.172 185.814C109.23 185.08 107.641 183.856 106.587 183.48C104.901 182.879 103.03 182.543 101.237 182.544C95.9988 182.547 90.8014 178.196 85.5282 182.357Z" fill="#013878"/>
<path d="M85.1073 182.37C90.8014 178.196 95.9988 182.547 101.237 182.544C103.03 182.543 104.901 182.879 106.587 183.48C107.641 183.857 109.23 185.08 109.172 185.814C108.941 188.778 108.764 191.998 107.481 194.584C102.381 204.865 98.8941 215.534 97.323 226.941C96.7694 230.959 95.1521 235.015 93.1975 238.606C91.1385 242.388 92.158 244.221 95.5343 246.099C98.3181 247.646 100.786 249.763 103.076 251.943C95.4067 248.93 88.0057 245.705 80.7211 242.237C75.5561 239.778 70.5483 236.988 65.4618 233.951C62.4889 227.547 63.153 222.176 66.7681 216.323C70.7981 209.799 73.5687 202.496 77.3541 194.553C73.2613 194.059 70.3496 193.839 67.4919 193.321C65.1285 192.892 62.8289 192.112 60.501 191.488C66.2446 191.488 71.9881 191.488 79.1963 191.488C74.2733 189.007 70.2073 186.958 66.1412 184.908C66.1957 184.556 66.2502 184.204 66.3047 183.852C69.1141 184.068 71.9235 184.283 75.6209 184.566C73.8584 183.109 72.7419 182.186 70.5441 180.369C76.1313 181.165 80.4088 181.773 85.1073 182.37Z" fill="#024287"/>
<path d="M122.463 258.366C121.729 256.426 120.996 254.487 119.999 251.85C122.516 249.334 123.78 246.042 121.78 241.48C121.012 239.727 123.494 236.727 123.991 234.196C124.613 231.036 125.299 227.696 124.888 224.575C124.414 220.975 125.578 218.927 127.524 215.883C130.466 211.281 136.004 208.446 136.856 202.303C137.062 200.821 139.441 199.64 141.298 197.865C135.116 194.321 128.861 190.735 122.523 186.806C135.577 190.208 147.003 197.336 158.26 205.117C158.447 206.796 158.309 208.428 159.05 209.121C162.825 212.65 161.294 215.194 158.251 218.245C155.979 220.523 152.896 223.627 152.962 226.295C153.162 234.471 146.736 240.115 146.002 247.909C145.509 253.15 143.053 258.207 141.068 263.345C134.594 261.685 128.529 260.026 122.463 258.366Z" fill="#012F69"/>
<path d="M361.383 99.0527C361.386 98.7176 361.545 98.4899 362.441 98.3539C363.846 97.6785 364.668 97.019 365.489 96.3596C382.101 86.1303 398.712 75.9011 415.935 65.6966C425.135 61.1661 433.724 56.6108 442.313 52.0555C442.313 52.0555 442.346 52.1721 442.679 52.2059C443.66 52.143 444.372 52.1876 444.947 51.9284C453.554 48.0471 462.156 44.1561 470.726 40.1943C473.104 39.095 474.615 39.1007 474.446 42.3296C474.454 42.3588 474.415 42.3119 474.12 42.3509C473.391 42.746 472.955 43.102 472.508 43.4195C472.496 43.3812 472.572 43.4064 472.361 43.4777C471.878 43.6925 471.677 43.9043 471.22 44.2977C469.425 45.7411 467.957 47.071 466.517 48.3871C466.544 48.3733 466.539 48.3129 466.377 48.4168C466.059 48.7228 465.882 48.9073 465.592 49.4224C464.994 50.4593 464.634 51.4946 463.962 51.7696C462.197 52.4922 460.118 52.5611 458.484 53.467C453.393 56.2892 448.398 59.2967 443.461 62.3841C436.723 66.5977 430.072 70.9511 423.037 75.3148C418.953 77.7164 415.216 80.0479 411.16 82.5027C396.715 92.8596 382.589 103.093 368.151 113.464C364.729 115.538 361.619 117.474 358.497 118.984C358.32 116.948 358.337 115.293 357.951 113.738C357.25 110.911 356.311 108.143 355.471 104.991C355.441 104.154 355.411 103.677 355.381 103.199C355.381 103.199 355.418 103.283 355.749 103.303C356.835 102.595 357.589 101.867 358.343 101.14C358.343 101.14 358.37 101.231 358.71 101.265C359.828 100.55 360.605 99.8016 361.383 99.0527Z" fill="#054B92"/>
<path d="M171.856 215.022C184.917 225.386 195.99 237.629 205.379 250.86C216.474 236.818 227.446 222.931 238.785 209.24C238.586 214.068 234.504 219.476 241.902 222.372C243.895 223.153 245.997 223.656 247.957 224.258C245.809 227.044 243.717 229.76 241.608 232.459C241.592 232.443 241.559 232.449 241.177 232.425C240.045 233.426 239.295 234.451 238.37 235.763C234.742 238.574 231.427 241.321 227.804 243.571C221.782 247.31 215.562 250.73 209.414 254.299C209.404 254.314 209.398 254.276 209.043 254.315C206.583 255.335 204.477 256.317 202.142 257.309C201.913 257.319 201.461 257.395 201.224 257.478C200.761 257.804 200.535 258.047 200.098 258.282C199.888 258.273 199.472 258.337 199.091 258.375C193.969 259.817 189.227 261.221 184.095 262.58C181.628 262.821 179.551 263.107 177.237 263.119C170.092 260.966 169.884 260.631 171.581 253.672C173.485 245.857 175.653 238.096 177.212 230.213C177.842 227.024 178.551 223.431 175.053 220.662C173.483 219.419 172.891 216.94 171.856 215.022Z" fill="#041D4F"/>
<path d="M60.2753 191.405C62.8288 192.112 65.1285 192.892 67.4919 193.321C70.3495 193.839 73.2612 194.059 77.3541 194.553C73.5686 202.496 70.7981 209.799 66.768 216.323C63.1529 222.176 62.4888 227.547 65.0852 233.959C61.6098 234 58.5025 233.638 55.5275 232.996C55.2146 231.991 54.7694 231.265 54.3131 230.526C54.3021 230.513 54.2759 230.506 54.2782 230.135C52.2471 229.091 50.2137 228.417 48.1523 227.784C48.1243 227.824 48.0271 227.837 47.9856 227.493C42.4732 224.381 37.0023 221.613 32.1782 219.173C33.999 218.239 36.1075 217.158 38.2159 216.077C38.2159 216.077 38.3135 216.191 38.5984 216.093C41.0731 213.831 41.5841 211.939 38.0253 210.708C38.0253 210.708 38.182 210.629 38.0997 210.347C32.6302 208.477 27.243 206.889 21.6177 205.23C22.1487 203.569 22.5803 202.218 23.012 200.867C23.012 200.867 23.1913 201.008 23.4583 201.031C24.2805 200.498 24.8357 199.941 25.3908 199.385C25.3908 199.385 25.5725 199.116 26.146 199.169C28.4355 198.682 30.2494 198.345 31.8508 197.569C39.6749 193.778 47.5593 190.348 56.584 191.308C57.5681 191.412 58.5792 191.262 59.5778 191.23C59.5778 191.23 60.0497 191.322 60.2753 191.405Z" fill="#054B92"/>
<path d="M171.846 215.032C172.891 216.94 173.483 219.419 175.052 220.662C178.55 223.431 177.842 227.024 177.211 230.214C175.652 238.096 173.485 245.858 171.58 253.672C169.884 260.631 170.091 260.966 176.937 263.384C174.074 264.142 171.274 264.362 168.184 264.543C167.424 264.794 166.953 265.083 166.044 265.37C163.562 265.4 161.518 265.431 159.036 265.431C152.891 264.715 147.183 264.03 141.476 263.346C143.053 258.207 145.509 253.151 146.002 247.91C146.736 240.115 153.162 234.471 152.962 226.295C152.896 223.628 155.979 220.523 158.251 218.245C161.294 215.194 162.825 212.65 159.05 209.121C158.309 208.428 158.447 206.796 158.452 205.402C159.265 205.694 159.806 206.18 160.601 207.208C161.465 207.897 162.075 208.043 162.684 208.189C162.684 208.189 162.584 208.231 162.611 208.547C163.62 209.346 164.602 209.829 165.584 210.312C165.918 210.253 166.196 210.351 166.606 211.11C167.337 211.865 167.879 212.116 168.422 212.366C168.728 212.487 169.035 212.608 169.471 213.324C170.346 214.285 171.09 214.651 171.835 215.017C171.835 215.017 171.836 215.042 171.846 215.032Z" fill="#01255C"/>
<path d="M576.265 18.5032C576.265 18.5032 576.258 18.8329 576.001 19.0795C575.504 19.6049 575.265 19.8836 575.026 20.1623C575.026 20.1623 574.695 20.1624 574.312 20.265C573.678 20.5847 573.426 20.802 573.174 21.0192C573.174 21.0192 573.163 20.9864 572.814 21.0215C571.065 21.736 569.664 22.4155 568.264 23.095C568.264 23.095 568.268 23.0476 567.864 23.0837C564.095 24.4878 560.73 25.8557 557.365 27.2236C557.365 27.2236 557.385 27.2835 556.997 27.2752C549.969 29.8476 543.321 32.408 536.691 35.0146C529.627 37.7919 522.58 40.6131 515.47 43.0588C514.238 41.4302 512.25 40.2852 512.028 38.8639C511.073 32.7588 507.302 32.0977 502.565 32.8779C504.728 31.5801 506.668 30.53 508.607 29.4799C508.607 29.4799 508.463 29.4202 508.891 29.4203C514.746 26.7755 520.174 24.1306 525.602 21.4858C525.602 21.4858 525.459 21.4547 525.899 21.4667C534.79 17.8589 543.24 14.2391 551.69 10.6193C551.69 10.6193 551.555 10.5797 551.906 10.6433C552.755 10.3955 553.254 10.0841 553.752 9.7728C553.752 9.7728 553.808 9.75183 554.187 9.77322C556.864 9.30759 559.161 8.82056 561.465 8.34106C561.471 8.34854 561.483 8.36096 561.335 8.66888C557.358 11.1396 553.529 13.3024 549.701 15.4651C549.875 15.8953 550.049 16.3255 550.223 16.7556C557.084 14.3405 563.945 11.9255 570.806 9.51038C570.806 9.51038 571.171 9.51785 571.673 9.43201C573.656 8.72998 575.136 8.11377 576.617 7.49753C576.617 7.49753 576.473 7.47696 576.914 7.50244C580.11 6.58948 582.865 5.65109 585.62 4.71268C586.037 4.62836 586.455 4.54404 587.539 4.36221C592.928 2.95779 597.648 1.65085 603.611 0C602.126 1.37817 601.678 1.79358 601.23 2.20895C601.23 2.20895 600.806 2.20615 600.319 2.28772C599.52 2.60004 599.207 2.83078 598.895 3.06152C598.895 3.06152 598.612 2.99753 598.149 3.09631C596.17 3.85565 594.654 4.51623 593.137 5.17682C593.137 5.17682 592.762 5.17108 592.26 5.26965C590.477 5.95154 589.196 6.53485 587.916 7.11816C587.916 7.11816 587.636 7.06787 587.165 7.17068C583.792 8.56213 580.89 9.85077 577.989 11.1394C577.989 11.1394 577.684 11.0922 577.203 11.2018C570.324 14.0497 563.926 16.788 557.527 19.5263C557.659 19.8697 557.791 20.213 557.924 20.5564C564.037 19.872 570.151 19.1876 576.265 18.5032Z" fill="#078ACC"/>
<path d="M261.441 183.2C262.094 182.481 262.748 181.761 263.819 181.226C264.423 181.406 264.609 181.401 264.795 181.396C264.59 181.223 264.385 181.049 264.181 180.876C268.358 176.439 272.536 172.003 277.256 167.357C278.023 166.906 278.247 166.665 278.471 166.423C278.471 166.423 278.699 166.178 279.164 166.109C279.861 165.699 280.093 165.359 280.325 165.019C280.325 165.019 280.337 165.219 280.525 165.117C280.909 164.687 281.105 164.358 281.301 164.029C281.301 164.029 281.329 164.211 281.523 164.115C281.913 163.691 282.11 163.364 282.307 163.036C282.307 163.036 282.334 163.218 282.525 163.118C282.916 162.692 283.115 162.367 283.314 162.041C283.314 162.041 283.341 162.221 283.53 162.123C283.925 161.707 284.13 161.388 284.335 161.069C284.335 161.069 284.343 161.207 284.628 161.194C285.399 160.515 285.886 159.85 286.373 159.185C286.373 159.185 286.384 159.291 286.585 159.183C287 158.791 287.213 158.505 287.426 158.22C287.426 158.22 287.431 158.312 287.624 158.206C288.029 157.833 288.241 157.568 288.454 157.302C288.454 157.302 288.47 157.353 288.772 157.298C289.375 156.766 289.677 156.288 289.979 155.81C289.979 155.81 290.307 155.873 290.448 155.892C290.759 155.573 290.928 155.234 291.098 154.896C291.098 154.896 291.166 155.036 291.397 154.992C291.798 154.605 291.969 154.262 292.139 153.919C292.139 153.919 292.197 154.073 292.421 154.019C292.833 153.628 293.021 153.293 293.209 152.957C293.209 152.957 293.248 153.115 293.52 153.163C294.019 153.258 294.244 153.304 294.482 153.728C296.657 156.16 295.353 161.662 300.205 160.783C305.273 159.865 306.534 162.104 306.341 166.675C304.752 168.787 303.394 170.672 301.849 172.39C293.747 181.398 285.598 190.363 277.206 199.448C276.449 199.801 275.951 200.047 275.453 199.891C274.539 198.447 273.747 197.248 272.669 196.419C271.969 195.88 270.509 196.185 269.983 195.588C267.052 192.263 264.302 188.778 261.489 184.989C261.472 184.154 261.457 183.677 261.441 183.2Z" fill="#012F69"/>
<path d="M261.491 185.347C264.303 188.778 267.052 192.263 269.983 195.588C270.509 196.184 271.969 195.88 272.67 196.419C273.747 197.248 274.539 198.447 275.163 200.062C266.746 209.227 258.618 217.817 250.185 226.539C247.127 228.604 244.375 230.54 241.624 232.475C243.717 229.76 245.809 227.044 247.957 224.258C245.997 223.656 243.895 223.153 241.902 222.372C234.504 219.476 238.586 214.068 239.048 209.026C238.944 208.617 238.978 208.638 239.317 208.798C241.055 206.938 242.455 204.918 243.854 202.897C243.854 202.897 243.943 202.89 244.257 202.885C244.867 202.35 245.162 201.82 245.457 201.289C245.443 200.94 245.573 200.657 246.481 200.373C247.782 199.196 248.45 198.086 249.119 196.976C249.119 196.976 249.182 197.099 249.422 197.043C249.946 196.474 250.231 195.96 250.515 195.446C250.515 195.446 250.49 195.374 250.836 195.317C251.611 194.614 252.04 193.969 252.468 193.325C253.87 191.731 255.271 190.136 257.224 188.299C257.969 187.737 258.16 187.419 258.352 187.1C258.352 187.1 258.374 187.25 258.568 187.141C258.941 186.707 259.121 186.382 259.301 186.057C259.301 186.057 259.322 186.206 259.556 186.149C260.357 185.844 260.924 185.596 261.491 185.347Z" fill="#01255C"/>
<path d="M215.265 339.164C205.756 340.628 196.287 342.456 186.731 343.487C159.702 346.402 133.943 342.372 109.697 328.152C108.227 327.365 107.233 326.882 106.239 326.399C102.724 323.276 99.2087 320.152 95.5864 316.685C95.4794 316.342 95.5716 316.245 95.9257 316.285C100.289 319.111 104.172 322.1 108.328 324.646C126.764 335.939 146.631 342.244 168.865 341.419C171.331 341.723 173.4 342.023 175.898 342.336C180.036 342.032 183.748 341.745 187.454 341.388C190.148 341.129 192.834 340.777 195.937 340.444C201.724 339.397 207.097 338.373 212.839 337.309C216.325 335.646 219.442 334.021 222.953 332.395C225.905 331.404 228.482 330.455 231.022 329.415C235.852 327.437 240.661 325.407 245.815 323.358C246.959 322.382 247.768 321.446 248.905 320.49C249.992 320.122 250.75 319.773 251.814 319.26C257.268 315.205 262.416 311.313 267.835 307.291C268.908 306.586 269.71 306.012 270.842 305.384C272.619 304.017 274.064 302.704 275.496 301.379C275.482 301.367 275.515 301.399 275.847 301.362C277.638 300.014 279.095 298.703 280.809 297.197C282.535 295.46 284.004 293.916 285.777 292.231C287.909 289.887 289.738 287.684 291.851 285.305C296.931 279.228 301.726 273.327 306.815 267.258C311.301 262.068 315.374 256.938 319.746 252.077C321.377 250.264 323.706 249.078 325.666 247.888C325.543 248.534 325.47 248.898 325.42 249.268C325.443 249.272 325.403 249.288 325.137 249.324C324.741 249.678 324.612 249.994 324.462 250.316C324.441 250.323 324.436 250.366 324.187 250.414C323.81 250.756 323.682 251.049 323.513 251.348C323.473 251.354 323.484 251.433 323.184 251.538C322.085 252.881 321.285 254.118 320.479 255.353C320.472 255.351 320.479 255.365 320.197 255.483C319.682 256.132 319.449 256.662 319.289 257.182C319.361 257.172 319.223 257.123 318.92 257.185C318.215 257.929 317.813 258.612 317.428 259.326C317.444 259.356 317.428 259.293 317.153 259.325C316.738 259.68 316.598 260.002 316.463 260.336C316.469 260.348 316.445 260.338 316.188 260.388C315.791 260.743 315.651 261.048 315.49 261.351C315.469 261.348 315.484 261.389 315.184 261.503C314.041 262.833 313.199 264.049 312.375 265.31C312.393 265.355 312.391 265.258 312.095 265.359C311.739 266.047 311.678 266.635 311.51 267.482C311.041 268.167 310.68 268.591 310.015 269.069C309.308 269.512 308.906 269.902 308.461 270.299C308.418 270.305 308.413 270.392 308.184 270.443C307.658 270.686 307.542 270.957 307.53 271.321C307.454 271.335 307.466 271.49 307.194 271.583C306.735 272.19 306.547 272.702 306.371 273.239C306.383 273.264 306.329 273.273 306.069 273.307C305.692 273.651 305.575 273.959 305.429 274.275C305.401 274.282 305.389 274.34 305.135 274.365C304.753 274.689 304.627 274.989 304.458 275.297C304.416 275.305 304.414 275.391 304.183 275.436C303.652 275.674 303.53 275.946 303.512 276.309C303.44 276.321 303.452 276.467 303.186 276.567C302.731 277.178 302.542 277.689 302.329 278.212C302.304 278.224 302.275 278.272 301.986 278.323C301.289 279.006 300.879 279.638 300.437 280.279C300.404 280.287 300.396 280.354 300.149 280.392C299.582 280.628 299.448 280.915 299.459 281.295C299.419 281.301 299.412 281.382 299.176 281.425C298.642 281.669 298.514 281.948 298.498 282.313C298.442 282.322 298.448 282.436 298.179 282.523C297.694 283.092 297.478 283.575 297.235 284.088C297.208 284.118 297.184 284.196 296.894 284.233C296.461 284.61 296.318 284.949 295.925 285.381C295.229 286.006 294.783 286.54 294.027 287.219C289.987 291.343 286.259 295.322 282.478 299.302C282.425 299.304 282.411 299.407 282.168 299.436C281.598 299.64 281.455 299.913 281.458 300.287C281.418 300.29 281.404 300.37 281.15 300.396C280.753 300.705 280.61 300.989 280.437 301.279C280.407 301.285 280.395 301.344 280.136 301.367C279.737 301.683 279.596 301.977 279.428 302.277C279.4 302.283 279.386 302.338 279.055 302.405C278.472 303.025 278.221 303.577 277.794 304.172C277.378 304.311 277.216 304.482 276.802 304.67C275.477 305.499 274.485 306.385 273.454 307.272C273.415 307.272 273.391 307.347 273.112 307.341C272.703 307.645 272.573 307.953 272.419 308.267C272.395 308.273 272.37 308.314 272.029 308.284C270.148 309.715 268.608 311.177 267.005 312.687C266.943 312.735 266.832 312.846 266.515 312.803C262.285 315.598 258.373 318.435 254.446 321.282C254.432 321.292 254.406 321.316 254.106 321.33C253.544 321.632 253.282 321.92 252.865 322.197C252.709 322.185 252.536 322.445 252.268 322.452C251.81 322.73 251.619 323 251.439 323.306C251.449 323.341 251.403 323.283 251.107 323.257C250.381 323.589 249.951 323.948 249.48 324.301C249.44 324.296 249.415 324.373 249.154 324.376C248.713 324.638 248.532 324.897 248.339 325.193C248.327 325.23 248.288 325.162 247.987 325.118C247.272 325.468 246.859 325.862 246.443 326.28C246.442 326.303 246.4 326.281 246.094 326.223C245.336 326.527 244.884 326.889 244.413 327.254C244.393 327.255 244.355 327.258 244 327.231C241.243 328.547 238.84 329.89 236.417 331.233C236.397 331.233 236.357 331.232 236.009 331.168C234.248 331.809 232.834 332.514 231.392 333.198C231.363 333.178 231.296 333.204 230.931 333.18C227.519 334.511 224.473 335.866 221.398 337.196C221.37 337.172 221.299 337.196 220.94 337.143C218.863 337.798 217.145 338.507 215.391 339.188C215.356 339.16 215.265 339.164 215.265 339.164Z" fill="#1F4C6E"/>
<path d="M306.485 166.37C306.534 162.104 305.273 159.865 300.205 160.783C295.353 161.662 296.657 156.16 294.418 153.386C294.274 152.447 294.206 152.226 294.138 152.005C294.138 152.005 294.228 152.121 294.456 152.065C294.889 151.676 295.095 151.342 295.301 151.009C295.301 151.009 295.309 151.17 295.592 151.173C296.371 150.503 296.866 149.83 297.362 149.158C297.362 149.158 297.392 149.281 297.588 149.18C298 148.786 298.215 148.493 298.431 148.2C298.431 148.2 298.437 148.321 298.618 148.203C299.018 147.81 299.236 147.535 299.455 147.26C299.625 146.985 299.795 146.71 300.534 146.343C301.458 145.791 301.813 145.331 302.167 144.871C302.167 144.871 302.244 145.072 302.448 145.028C302.852 144.642 303.054 144.301 303.255 143.959C303.255 143.959 303.263 144.127 303.548 144.14C304.342 143.486 304.85 142.82 305.358 142.154C305.358 142.154 305.395 142.284 305.587 142.167C305.989 141.74 306.198 141.429 306.407 141.118C306.379 140.773 306.522 140.526 307.306 140.249C308.01 139.868 308.244 139.616 308.478 139.363C308.478 139.363 308.473 139.355 308.784 139.307C309.493 138.837 309.89 138.415 310.288 137.992C310.288 137.992 310.319 138.181 310.511 138.103C310.918 137.712 311.133 137.4 311.347 137.087C311.347 137.087 311.376 137.248 311.599 137.129C312.091 136.672 312.359 136.332 312.627 135.993C317.878 131.64 323.129 127.287 328.803 122.971C329.225 123.009 329.494 123.368 329.446 123.712C326.524 127.96 323.491 131.764 320.889 135.841C320.254 136.836 320.755 138.82 321.211 140.191C322.141 142.991 323.395 145.683 324.355 148.707C319.961 153.464 315.726 157.933 311.196 162.53C309.43 163.895 307.957 165.133 306.485 166.37Z" fill="#013878"/>
<path d="M24.4654 262.26C24.4654 262.26 24.2552 262.06 23.9942 261.892C23.7331 261.725 23.429 261.328 23.1796 261.066C22.2179 260.724 21.5055 260.644 20.7475 260.628C20.7017 260.69 20.5514 260.651 20.343 260.341C17.2439 259.131 14.3532 258.232 11.2442 257.076C10.1468 256.678 9.26781 256.538 8.07439 256.388C7.22113 256.083 6.6823 255.788 6.55518 255.414C8.88021 254.979 10.7936 254.623 13.1032 254.227C27.007 257.096 40.9683 258.316 53.5255 264.902C52.722 263.781 51.9184 262.661 51.1148 261.54C51.3441 261.229 51.5735 260.918 51.8029 260.607C56.669 262.681 61.5352 264.755 67.5859 267.333C65.9337 265.474 65.1075 264.544 64.6624 263.544C66.4148 264.883 67.7863 266.293 69.1578 267.703C67.316 267.843 65.4761 268.017 63.6321 268.114C61.1412 268.245 58.2853 267.582 56.2421 268.59C53.4072 269.989 51.1815 272.623 48.1299 275.206C48.1749 275.789 48.3123 277.565 48.1077 279.318C46.6379 279.46 45.5101 279.626 44.3822 279.792C43.8589 279.734 43.3357 279.676 42.4304 279.487C42.0484 279.357 42.0251 279.374 42.0251 279.374C41.0877 279.201 40.1504 279.029 38.5955 278.344C35.3021 276.427 32.6264 275.021 29.9507 273.615C30.1454 273.27 30.3402 272.926 30.535 272.581C32.6165 272.674 34.698 272.767 36.7632 272.829C36.7469 272.799 36.8148 272.784 36.8987 273.166C38.2237 273.698 39.4649 273.849 40.6589 273.949C40.6119 273.899 40.7259 273.823 40.8296 274.181C45.0753 275.785 45.6907 275.492 45.409 272.389C45.4606 272.346 45.3694 272.444 45.3656 272.12C44.92 271.424 44.4782 271.052 44.1125 270.654C44.1886 270.629 44.1389 270.782 44.1058 270.463C43.528 269.883 42.9833 269.622 42.4555 269.352C42.4724 269.343 42.4726 269.381 42.3475 269.147C41.9157 268.752 41.6089 268.59 41.3587 268.419C41.4153 268.41 41.4116 268.525 41.2878 268.267C40.8167 267.888 40.4693 267.768 40.2015 267.628C40.2811 267.609 40.2382 267.767 40.1434 267.433C39.423 266.892 38.7974 266.685 37.9034 266.446C37.2191 266.101 36.8033 265.789 36.2334 265.207C35.4973 264.78 34.9152 264.623 34.3731 264.447C34.4131 264.428 34.409 264.517 34.2504 264.238C33.4927 263.814 32.8936 263.668 32.3388 263.503C32.383 263.484 32.381 263.58 32.1741 263.262C31.2354 262.826 30.5037 262.708 29.5671 262.707C29.0314 262.827 28.7436 262.716 28.3762 262.266C27.6797 262.072 27.1059 262.105 26.187 262.169C25.3832 262.22 24.9243 262.24 24.4654 262.26Z" fill="#054B92"/>
<path d="M51.4205 256.489C46.3453 253.133 41.2701 249.778 35.831 246.422C35.4671 246.422 35.1727 246.19 34.7721 245.957C33.7549 245.57 33.1383 245.415 32.5218 245.26C32.5218 245.26 32.4935 245.349 32.3459 245.072C31.6306 244.635 31.0629 244.476 30.4953 244.317C30.4953 244.317 30.4766 244.354 30.3149 244.101C29.6029 243.677 29.0525 243.505 28.5021 243.333C28.5021 243.333 28.4812 243.347 28.3134 243.092C27.603 242.639 27.0604 242.441 26.5178 242.242C26.5178 242.242 26.5054 242.33 26.3267 242.03C23.2901 240.301 20.4322 238.872 17.5742 237.442C18.4201 237.024 19.2999 236.184 20.1067 236.25C34.3938 237.402 47.9723 241.421 61.3647 246.99C61.4852 247.348 61.4229 247.437 61.0381 247.405C57.6689 246.97 54.6833 246.575 51.7005 246.16C48.7862 245.754 45.7698 243.155 42.6035 246.526C44.892 247.633 46.9299 248.37 48.6873 249.531C51.1203 251.138 53.2109 253.115 51.4205 256.489Z" fill="#054B92"/>
<path d="M54.3242 230.539C54.7695 231.265 55.2147 231.991 55.166 233.009C53.7457 233.572 52.8193 233.843 51.7563 234.155C59.6216 237.701 67.042 241.046 74.4662 244.787C74.4621 246.237 74.4541 247.293 74.1179 248.347C73.352 248.347 72.9144 248.349 72.2882 248.103C70.9306 247.99 69.7616 248.125 68.5925 248.261C67.1624 247.148 65.7323 246.035 64.4013 244.619C64.5004 244.316 64.4596 244.372 64.4596 244.372C65.1779 244.201 65.8961 244.03 66.6144 243.859C66.7417 243.299 66.8691 242.74 66.9965 242.181C56.8102 238.886 46.624 235.591 35.9799 232.026C35.3945 231.643 35.2668 231.531 35.1392 231.419C35.1857 231.242 35.2323 231.065 35.8564 230.638C40.2479 230.558 44.0605 230.801 47.8762 230.869C50.0229 230.908 52.1747 230.658 54.3242 230.539Z" fill="#1F4C6E"/>
<path d="M44.6699 279.972C45.5101 279.626 46.638 279.46 48.4259 279.491C49.8713 281.225 50.591 282.801 51.4645 284.287C52.078 285.33 52.6942 286.603 53.6624 287.172C63.6582 293.044 73.9622 298.431 83.6695 304.739C88.2112 307.69 91.639 312.356 95.5716 316.245C95.5716 316.245 95.4794 316.342 95.4326 316.39C88.44 311.05 81.8048 305.184 74.4598 300.41C67.2613 295.731 59.3466 292.152 51.7319 288.117C49.7304 287.057 47.6759 286.096 44.9097 284.724C47.0072 283.582 48.3239 282.865 50.2816 281.798C48.0714 281.115 46.5145 280.633 44.6699 279.972Z" fill="#1F4C6E"/>
<path d="M491.42 30.5768C492.297 30.5122 493.1 30.5122 494.987 30.5122C489.183 33.9087 484.265 36.7872 479.024 39.4002C478.156 38.7369 477.61 38.339 477.064 37.941C476.805 38.3063 476.545 38.6715 476.286 39.0368C477.067 39.2935 477.847 39.5502 478.628 39.8069C477.439 40.6106 476.249 41.4144 474.749 42.2593C474.615 39.1007 473.104 39.095 470.726 40.1943C462.157 44.1561 453.554 48.0471 444.947 51.9284C444.372 52.1877 443.66 52.143 442.627 52.175C454.112 46.7482 465.982 41.3862 478.487 35.7752C479.733 35.1741 480.345 34.8221 480.956 34.47C480.956 34.47 481.222 34.5402 481.642 34.4488C482.613 34.0498 483.165 33.7423 483.717 33.4348C483.717 33.4348 484.11 33.4575 484.597 33.3565C485.422 33.0128 485.759 32.7702 486.095 32.5276C486.095 32.5276 486.262 32.592 486.689 32.5242C487.747 32.1406 488.378 31.8248 489.009 31.509C489.009 31.509 489.271 31.5729 489.687 31.4576C490.452 31.0941 490.802 30.8458 491.152 30.5974C491.152 30.5974 491.345 30.6414 491.42 30.5768Z" fill="#1F4C6E"/>
<path d="M37.8052 216.196C36.1074 217.158 33.9989 218.239 32.1781 219.173C37.0022 221.613 42.4731 224.38 47.6166 227.383C44.683 226.906 42.0766 226.194 39.4704 225.482C34.3363 223.046 29.2023 220.609 24.2783 218.273C28.1897 217.689 32.7921 217.002 37.8052 216.196Z" fill="#1F4C6E"/>
<path d="M59.3957 190.894C58.5792 191.262 57.568 191.412 56.5839 191.307C47.5592 190.348 39.6749 193.778 31.8507 197.569C30.2493 198.345 28.4354 198.682 26.3076 199.157C31.0458 197.078 36.8451 195.963 41.1884 192.83C47.1664 188.518 53.0775 190.095 59.3957 190.894Z" fill="#1F4C6E"/>
<path d="M441.945 52.1187C433.724 56.6109 425.135 61.1661 416.292 65.5978C424.551 61.0433 433.064 56.6125 441.945 52.1187Z" fill="#1F4C6E"/>
<path d="M22.72 201.01C22.5803 202.218 22.1486 203.569 21.6176 205.23C27.243 206.889 32.6301 208.477 38.0903 210.435C35.4444 210.178 32.7216 209.569 30.0075 208.924C26.2495 208.031 22.498 207.111 17.4678 205.893C19.9042 203.564 21.1662 202.358 22.72 201.01Z" fill="#1F4C6E"/>
<path d="M34.4364 271.73C35.3095 272.008 35.826 272.249 36.5608 272.675C34.6977 272.767 32.6162 272.674 30.5348 272.581C30.34 272.926 30.1452 273.27 29.9504 273.615C32.6261 275.021 35.3018 276.427 38.1839 278.1C32.491 277.161 27.562 274.296 23.7456 269.185C27.1903 270.021 30.6351 270.857 34.4364 271.73Z" fill="#1F4C6E"/>
<path d="M241.924 444.406C247.782 441.78 253.927 439.29 260.565 436.518C261.43 436.164 261.803 436.09 262.211 436.058C262.246 436.098 262.314 436.181 262.314 436.181C255.613 438.968 248.911 441.755 241.924 444.406Z" fill="#E0C434"/>
<path d="M223.685 445.677C228.282 445.078 233.063 444.776 238.279 444.49C233.765 444.996 228.818 445.485 223.685 445.677Z" fill="#E0C434"/>
<path d="M333.438 119.316C336.855 116.675 340.271 114.034 344.065 111.357C344.443 111.32 344.538 111.421 344.481 111.763C340.788 114.542 337.151 116.98 333.497 119.391C333.479 119.365 333.438 119.316 333.438 119.316Z" fill="#013878"/>
<path d="M106.15 326.71C107.233 326.882 108.227 327.365 109.345 328.119C110.088 329.875 110.707 331.36 111.462 333.072C109.751 331.206 107.906 329.114 106.15 326.71Z" fill="#E0C434"/>
<path d="M68.4799 248.566C69.7614 248.125 70.9305 247.99 72.2415 248.458C70.6072 252.504 68.5713 251.95 66.4399 249.405C66.471 249.362 66.5342 249.275 66.5342 249.275C67.1452 249.14 67.7563 249.005 68.4799 248.566Z" fill="#054B92"/>
<path d="M243.602 203.085C242.455 204.918 241.055 206.939 239.306 208.784C240.421 206.83 241.885 205.051 243.602 203.085Z" fill="#041D4F"/>
<path d="M188.907 432.594C190.572 433.337 192.307 434.387 194.202 435.681C192.568 434.917 190.772 433.908 188.907 432.594Z" fill="#E0C434"/>
<path d="M268.328 432.157C266.563 433.483 264.798 434.809 262.673 436.158C262.314 436.181 262.245 436.098 262.31 435.876C262.375 435.653 262.532 435.266 262.73 435.172C263.177 434.897 263.34 434.658 263.43 434.345C263.442 434.328 263.464 434.293 263.801 434.266C265.538 433.54 266.937 432.842 268.344 432.152C268.353 432.16 268.328 432.157 268.328 432.157Z" fill="#E0C434"/>
<path d="M20.343 260.341C18.7786 260.25 17.0057 259.848 14.8458 259.427C14.4586 259.408 14.2492 259.186 13.912 258.967C13.2066 258.677 12.8383 258.606 12.47 258.536C12.47 258.536 12.0827 258.308 11.7733 258.113C11.464 257.917 11.3007 257.543 11.343 257.492C11.3854 257.441 11.4626 257.333 11.4626 257.333C14.3533 258.232 17.2439 259.131 20.343 260.341Z" fill="#1F4C6E"/>
<path d="M38.1812 211.094C41.5841 211.939 41.0731 213.831 38.5273 216.069C38.2264 214.589 38.2817 213.034 38.1812 211.094Z" fill="#1F4C6E"/>
<path d="M206.707 442.372C208.085 442.462 209.458 442.812 211.041 443.329C209.735 443.208 208.219 442.92 206.707 442.372Z" fill="#E0C434"/>
<path d="M165.938 405.669C166.816 406.84 167.676 408.331 168.608 410.083C167.761 408.892 166.841 407.44 165.938 405.669Z" fill="#E0C434"/>
<path d="M198.417 438.431C199.651 438.706 200.897 439.254 202.294 439.996C201.107 439.695 199.768 439.199 198.417 438.431Z" fill="#E0C434"/>
<path d="M61.5175 247.305C63.1311 247.752 64.7123 248.243 66.4139 249.005C66.5343 249.275 66.4711 249.362 66.0908 249.373C64.2813 248.736 62.8521 248.086 61.4229 247.437C61.4229 247.437 61.4852 247.348 61.5175 247.305Z" fill="#054B92"/>
<path d="M136.4 362.499C137.149 363.023 137.824 363.809 138.545 364.801C137.836 364.259 137.081 363.51 136.4 362.499Z" fill="#E0C434"/>
<path d="M248.836 197.119C248.45 198.086 247.781 199.196 246.711 200.303C247.058 199.287 247.805 198.274 248.836 197.119Z" fill="#041D4F"/>
<path d="M344.396 111.27C345.503 110.287 346.658 109.354 348.153 108.397C348.494 108.374 348.538 108.422 348.475 108.768C347.121 109.883 345.829 110.652 344.538 111.421C344.538 111.421 344.443 111.32 344.396 111.27Z" fill="#013878"/>
<path d="M114.299 336.505C115.051 336.938 115.757 337.648 116.533 338.608C115.821 338.166 115.037 337.474 114.299 336.505Z" fill="#E0C434"/>
<path d="M216.53 444.74C217.73 444.731 219.093 444.976 220.792 445.23C219.65 445.158 218.171 445.076 216.53 444.74Z" fill="#E0C434"/>
<path d="M355.079 103.317C355.411 103.677 355.441 104.154 355.13 105.026C353.704 105.751 352.617 106.082 351.476 106.353C351.42 106.295 351.311 106.177 351.311 106.177C352.466 105.263 353.621 104.349 355.079 103.317Z" fill="#013878"/>
<path d="M358.046 101.252C357.589 101.867 356.835 102.595 355.704 103.293C356.135 102.631 356.942 101.997 358.046 101.252Z" fill="#013878"/>
<path d="M361.063 99.1401C360.606 99.8017 359.828 100.551 358.664 101.259C359.099 100.554 359.921 99.8909 361.063 99.1401Z" fill="#013878"/>
<path d="M165.429 210.037C164.602 209.829 163.62 209.346 162.629 208.496C163.505 208.673 164.39 209.218 165.429 210.037Z" fill="#041D4F"/>
<path d="M365.168 96.4092C364.668 97.0191 363.846 97.6786 362.657 98.3172C363.142 97.6838 363.994 97.0713 365.168 96.4092Z" fill="#013878"/>
<path d="M160.416 395.568C160.861 395.893 161.198 396.442 161.562 397.183C161.163 396.848 160.736 396.32 160.416 395.568Z" fill="#E0C434"/>
<path d="M348.472 108.349C349.205 107.659 349.96 106.993 351.013 106.252C351.31 106.177 351.42 106.295 351.401 106.684C350.434 107.523 349.486 107.973 348.538 108.422C348.538 108.422 348.494 108.373 348.472 108.349Z" fill="#013878"/>
<path d="M25.1114 199.417C24.8357 199.941 24.2805 200.498 23.395 200.936C23.6538 200.362 24.2429 199.906 25.1114 199.417Z" fill="#1F4C6E"/>
<path d="M286.085 159.28C285.886 159.85 285.4 160.515 284.562 161.173C284.739 160.569 285.268 159.973 286.085 159.28Z" fill="#041D4F"/>
<path d="M173.302 417.545C173.726 417.669 174.079 418.015 174.468 418.549C174.079 418.414 173.655 418.091 173.302 417.545Z" fill="#E0C434"/>
<path d="M261.489 184.989C260.924 185.596 260.357 185.844 259.482 186.133C259.736 185.273 260.296 184.372 261.149 183.335C261.457 183.677 261.472 184.154 261.489 184.989Z" fill="#041D4F"/>
<path d="M143.455 371.493C143.863 371.637 144.158 371.986 144.487 372.505C144.128 372.349 143.735 372.024 143.455 371.493Z" fill="#E0C434"/>
<path d="M147.309 376.55C147.748 376.715 148.117 377.112 148.53 377.717C148.129 377.544 147.684 377.163 147.309 376.55Z" fill="#E0C434"/>
<path d="M171.683 214.756C171.09 214.651 170.346 214.285 169.561 213.563C170.19 213.637 170.861 214.065 171.683 214.756Z" fill="#041D4F"/>
<path d="M297.075 149.26C296.867 149.83 296.371 150.503 295.516 151.146C295.7 150.532 296.244 149.947 297.075 149.26Z" fill="#01255C"/>
<path d="M152.303 383.484C152.735 383.662 153.1 384.081 153.502 384.711C153.105 384.523 152.67 384.124 152.303 383.484Z" fill="#E0C434"/>
<path d="M329.947 121.875C330.543 121.359 331.139 120.842 332.076 120.31C332.418 120.295 332.528 120.393 332.47 120.707C331.772 121.473 331.133 121.926 330.36 122.251C330.225 122.122 329.947 121.875 329.947 121.875Z" fill="#013878"/>
<path d="M121.359 344.532C121.78 344.644 122.105 344.964 122.471 345.451C122.096 345.325 121.68 345.032 121.359 344.532Z" fill="#E0C434"/>
<path d="M305.068 142.247C304.85 142.82 304.342 143.486 303.471 144.106C303.665 143.486 304.221 142.913 305.068 142.247Z" fill="#01255C"/>
<path d="M64.5198 244.287C63.6472 244.258 62.7552 244.258 61.8631 244.258C61.8619 244.071 61.8606 243.884 61.8594 243.696C62.6574 243.696 63.4554 243.696 64.3564 244.034C64.4595 244.372 64.5003 244.316 64.5198 244.287Z" fill="#1F4C6E"/>
<path d="M9.01827 257.177C8.8458 257.177 8.64748 256.77 8.51807 256.584C9.26765 256.538 10.1466 256.678 11.244 257.076C11.4624 257.334 11.3852 257.441 11.0324 257.475C10.2678 257.476 9.85601 257.444 9.44426 257.411C9.44426 257.411 9.19074 257.177 9.01827 257.177Z" fill="#1F4C6E"/>
<path d="M252.198 193.434C252.04 193.97 251.611 194.614 250.873 195.325C251.018 194.774 251.473 194.158 252.198 193.434Z" fill="#041D4F"/>
<path d="M154.49 386.552C154.875 386.709 155.183 387.061 155.539 387.586C155.196 387.421 154.804 387.084 154.49 386.552Z" fill="#E0C434"/>
<path d="M148.849 378.558C149.147 378.552 149.35 378.805 149.55 379.261C149.355 379.19 149.091 378.975 148.849 378.558Z" fill="#E0C434"/>
<path d="M139.696 366.58C139.958 366.626 140.2 366.882 140.497 367.303C140.259 367.242 139.968 367.016 139.696 366.58Z" fill="#E0C434"/>
<path d="M142.105 369.678C142.179 369.538 142.449 369.913 142.493 369.968C142.537 370.023 142.238 370.201 142.238 370.201C142.238 370.201 142.03 369.818 142.105 369.678Z" fill="#E0C434"/>
<path d="M134.933 360.632C135.188 360.578 135.348 360.751 135.52 361.067C135.353 361.044 135.122 360.927 134.933 360.632Z" fill="#E0C434"/>
<path d="M310.011 138.08C309.89 138.414 309.493 138.837 308.782 139.306C308.891 138.958 309.313 138.563 310.011 138.08Z" fill="#012F69"/>
<path d="M41.8975 279.282C42.0247 279.374 42.0481 279.357 42.0574 279.348C41.9679 279.29 41.8691 279.24 41.8975 279.282Z" fill="#1F4C6E"/>
<path d="M130.806 355.634C131.124 355.576 131.34 355.801 131.547 356.245C131.341 356.201 131.063 356.019 130.806 355.634Z" fill="#E0C434"/>
<path d="M301.896 144.981C301.813 145.331 301.458 145.791 300.784 146.305C300.851 145.936 301.238 145.513 301.896 144.981Z" fill="#01255C"/>
<path d="M168.28 212.104C167.879 212.116 167.337 211.865 166.683 211.327C167.093 211.307 167.616 211.574 168.28 212.104Z" fill="#041D4F"/>
<path d="M213.37 444.265C213.464 444.174 213.822 444.226 213.911 444.225C213.758 444.268 213.517 444.312 213.37 444.265Z" fill="#E0C434"/>
<path d="M204.594 441.333C204.73 441.254 205.056 441.385 205.117 441.389C205.178 441.392 204.817 441.643 204.817 441.643C204.817 441.643 204.459 441.413 204.594 441.333Z" fill="#E0C434"/>
<path d="M196.685 437.388C196.834 437.324 197.161 437.476 197.22 437.494C197.279 437.513 196.881 437.725 196.881 437.725C196.881 437.725 196.537 437.451 196.685 437.388Z" fill="#E0C434"/>
<path d="M250.255 195.561C250.23 195.96 249.946 196.474 249.355 197.027C249.364 196.602 249.68 196.139 250.255 195.561Z" fill="#041D4F"/>
<path d="M162.53 207.906C162.075 208.043 161.465 207.897 160.686 207.474C161.136 207.339 161.755 207.481 162.53 207.906Z" fill="#041D4F"/>
<path d="M182.584 427.414C182.891 427.38 183.085 427.521 183.315 427.791C183.079 427.782 182.785 427.671 182.584 427.414Z" fill="#E0C434"/>
<path d="M270.201 431.07C269.761 431.405 269.322 431.74 268.605 432.115C268.328 432.157 268.353 432.16 268.534 431.942C269.23 431.502 269.745 431.28 270.249 431.071C270.237 431.084 270.201 431.07 270.201 431.07Z" fill="#E0C434"/>
<path d="M245.199 201.392C245.162 201.82 244.867 202.35 244.248 202.842C244.263 202.367 244.602 201.931 245.199 201.392Z" fill="#041D4F"/>
<path d="M150.848 381.534C151.137 381.518 151.339 381.76 151.549 382.195C151.357 382.134 151.092 381.936 150.848 381.534Z" fill="#E0C434"/>
<path d="M289.733 155.943C289.677 156.288 289.375 156.766 288.749 157.284C288.779 156.909 289.133 156.492 289.733 155.943Z" fill="#01255C"/>
<path d="M312.312 136.105C312.359 136.332 312.091 136.672 311.518 137.126C311.474 136.9 311.736 136.559 312.312 136.105Z" fill="#012F69"/>
<path d="M116.963 339.453C116.992 339.308 117.299 339.605 117.356 339.69C117.413 339.776 117.124 339.819 117.124 339.819C117.124 339.819 116.934 339.597 116.963 339.453Z" fill="#E0C434"/>
<path d="M127.279 351.494C127.352 351.494 127.287 351.535 127.285 351.507C127.282 351.478 127.206 351.493 127.279 351.494Z" fill="#E0C434"/>
<path d="M332.366 120.242C332.519 119.928 332.725 119.666 333.184 119.361C333.439 119.316 333.479 119.365 333.379 119.596C333.078 120.081 332.828 120.27 332.528 120.393C332.528 120.393 332.417 120.295 332.366 120.242Z" fill="#013878"/>
<path d="M280.035 165.133C280.093 165.359 279.861 165.699 279.328 166.141C279.266 165.911 279.506 165.579 280.035 165.133Z" fill="#041D4F"/>
<path d="M112.353 334.536C112.399 334.562 112.364 334.524 112.363 334.5C112.361 334.476 112.306 334.51 112.353 334.536Z" fill="#E0C434"/>
<path d="M311.074 137.175C311.133 137.4 310.918 137.712 310.416 138.09C310.353 137.858 310.577 137.56 311.074 137.175Z" fill="#012F69"/>
<path d="M113.324 335.512C113.38 335.528 113.341 335.521 113.339 335.495C113.337 335.469 113.268 335.495 113.324 335.512Z" fill="#E0C434"/>
<path d="M132.345 357.557C132.41 357.573 132.384 357.576 132.388 357.55C132.392 357.524 132.28 357.542 132.345 357.557Z" fill="#E0C434"/>
<path d="M150.258 380.586C150.345 380.51 150.451 380.734 150.485 380.785C150.519 380.837 150.171 380.663 150.258 380.586Z" fill="#E0C434"/>
<path d="M156.391 389.684C156.421 389.718 156.409 389.625 156.414 389.597C156.42 389.569 156.36 389.65 156.391 389.684Z" fill="#E0C434"/>
<path d="M157.173 390.537C157.253 390.425 157.424 390.721 157.468 390.792C157.512 390.864 157.238 390.88 157.238 390.88C157.238 390.88 157.093 390.649 157.173 390.537Z" fill="#E0C434"/>
<path d="M158.377 392.649C158.41 392.69 158.397 392.601 158.403 392.572C158.41 392.544 158.344 392.608 158.377 392.649Z" fill="#E0C434"/>
<path d="M159.201 393.544C159.291 393.451 159.422 393.695 159.462 393.75C159.502 393.804 159.25 393.853 159.25 393.853C159.25 393.853 159.111 393.637 159.201 393.544Z" fill="#E0C434"/>
<path d="M163.369 400.675C163.456 400.703 163.445 400.719 163.46 400.709C163.476 400.699 163.283 400.647 163.369 400.675Z" fill="#E0C434"/>
<path d="M165.401 404.691C165.484 404.731 165.474 404.74 165.491 404.731C165.509 404.722 165.317 404.652 165.401 404.691Z" fill="#E0C434"/>
<path d="M329.112 122.815C329.134 122.373 329.322 122.176 329.755 121.952C329.947 121.875 330.225 122.122 330.244 122.462C330.062 123.066 329.806 123.255 329.494 123.368C329.494 123.368 329.225 123.009 329.112 122.815Z" fill="#013878"/>
<path d="M169.276 411.576C169.378 411.543 169.407 411.639 169.43 411.648C169.453 411.658 169.174 411.608 169.276 411.576Z" fill="#E0C434"/>
<path d="M170.435 413.653C170.437 413.703 170.369 413.614 170.365 413.585C170.361 413.557 170.434 413.602 170.435 413.653Z" fill="#E0C434"/>
<path d="M133.215 358.504C133.303 358.46 133.318 358.541 133.333 358.548C133.349 358.554 133.127 358.548 133.215 358.504Z" fill="#E0C434"/>
<path d="M187.281 431.449C187.328 431.457 187.222 431.486 187.208 431.461C187.194 431.435 187.233 431.442 187.281 431.449Z" fill="#E0C434"/>
<path d="M178.35 423.618C178.391 423.65 178.368 423.564 178.372 423.536C178.376 423.507 178.309 423.586 178.35 423.618Z" fill="#E0C434"/>
<path d="M179.311 424.475C179.361 424.489 179.294 424.489 179.291 424.463C179.288 424.436 179.262 424.461 179.311 424.475Z" fill="#E0C434"/>
<path d="M180.353 425.51C180.398 425.536 180.335 425.485 180.332 425.459C180.329 425.434 180.308 425.485 180.353 425.51Z" fill="#E0C434"/>
<path d="M129.12 353.561C129.199 353.482 129.311 353.591 129.334 353.617C129.357 353.644 129.041 353.639 129.12 353.561Z" fill="#E0C434"/>
<path d="M126.349 350.547C126.403 350.569 126.373 350.552 126.373 350.527C126.372 350.502 126.294 350.526 126.349 350.547Z" fill="#E0C434"/>
<path d="M125.353 349.631C125.391 349.648 125.356 349.561 125.357 349.534C125.357 349.507 125.315 349.613 125.353 349.631Z" fill="#E0C434"/>
<path d="M181.39 426.507C181.406 426.528 181.308 426.473 181.301 426.446C181.293 426.419 181.374 426.486 181.39 426.507Z" fill="#E0C434"/>
<path d="M186.225 430.531C186.306 430.51 186.305 430.521 186.311 430.499C186.317 430.478 186.145 430.553 186.225 430.531Z" fill="#E0C434"/>
<path d="M271.144 430.117C270.975 430.357 270.779 430.583 270.374 430.924C270.201 431.07 270.237 431.084 270.367 430.894C270.681 430.488 270.89 430.298 271.124 430.135C271.124 430.135 271.153 430.134 271.144 430.117Z" fill="#E0C434"/>
<path d="M283.043 162.144C283.115 162.366 282.916 162.692 282.434 163.107C282.358 162.88 282.565 162.563 283.043 162.144Z" fill="#041D4F"/>
<path d="M284.062 161.164C284.131 161.388 283.925 161.707 283.44 162.113C283.369 161.886 283.579 161.572 284.062 161.164Z" fill="#041D4F"/>
<path d="M282.036 163.138C282.11 163.364 281.913 163.691 281.431 164.104C281.353 163.872 281.559 163.556 282.036 163.138Z" fill="#041D4F"/>
<path d="M287.159 158.299C287.213 158.506 287 158.791 286.532 159.176C286.483 158.976 286.687 158.677 287.159 158.299Z" fill="#01255C"/>
<path d="M288.19 157.366C288.241 157.568 288.029 157.834 287.578 158.201C287.535 158.013 287.731 157.721 288.19 157.366Z" fill="#01255C"/>
<path d="M290.859 154.991C290.928 155.234 290.759 155.573 290.282 155.888C290.189 155.606 290.405 155.346 290.859 154.991Z" fill="#01255C"/>
<path d="M278.198 166.429C278.247 166.665 278.023 166.906 277.563 167.233C277.526 167.024 277.725 166.729 278.198 166.429Z" fill="#041D4F"/>
<path d="M259.036 186.161C259.121 186.382 258.941 186.708 258.492 187.134C258.406 186.912 258.588 186.588 259.036 186.161Z" fill="#041D4F"/>
<path d="M258.086 187.207C258.16 187.419 257.969 187.737 257.517 188.171C257.444 187.962 257.632 187.638 258.086 187.207Z" fill="#041D4F"/>
<path d="M291.889 154.024C291.969 154.262 291.799 154.605 291.322 154.971C291.223 154.706 291.431 154.417 291.889 154.024Z" fill="#01255C"/>
<path d="M281.032 164.134C281.105 164.358 280.909 164.687 280.426 165.099C280.348 164.868 280.556 164.553 281.032 164.134Z" fill="#041D4F"/>
<path d="M302.981 144.056C303.053 144.301 302.852 144.642 302.34 145.023C302.255 144.759 302.481 144.456 302.981 144.056Z" fill="#01255C"/>
<path d="M306.147 141.242C306.198 141.429 305.989 141.74 305.52 142.172C305.469 141.984 305.679 141.675 306.147 141.242Z" fill="#01255C"/>
<path d="M308.2 139.388C308.244 139.616 308.01 139.868 307.528 140.208C307.494 140.001 307.708 139.707 308.2 139.388Z" fill="#01255C"/>
<path d="M299.194 147.348C299.237 147.534 299.018 147.81 298.558 148.2C298.522 148.023 298.727 147.729 299.194 147.348Z" fill="#01255C"/>
<path d="M298.156 148.278C298.215 148.493 298 148.786 297.525 149.182C297.471 148.975 297.676 148.665 298.156 148.278Z" fill="#01255C"/>
<path d="M295.025 151.108C295.095 151.342 294.889 151.676 294.383 152.074C294.304 151.827 294.526 151.517 295.025 151.108Z" fill="#01255C"/>
<path d="M293.906 152.096C294.206 152.226 294.274 152.447 294.406 153.01C294.244 153.304 294.019 153.258 293.463 153.105C293.202 152.654 293.383 152.384 293.906 152.096Z" fill="#01255C"/>
<path d="M292.947 153.054C293.021 153.292 292.833 153.628 292.341 153.998C292.254 153.738 292.47 153.444 292.947 153.054Z" fill="#01255C"/>
<path d="M262.532 435.266C262.532 435.266 262.375 435.653 262.275 435.834C259.555 437.303 244.102 437.574 242.973 435.834C226.347 410.232 195.937 383.13 181.756 358.206C180.794 356.515 179.907 354.835 179.104 353.166C178.368 351.636 177.48 350.178 176.661 348.687C186.583 344.138 198.296 343.902 209.091 342.777C225.027 368.437 263.27 382.403 292.973 394.351C281.473 428.351 278.773 429.766 269.973 435.266C269.973 435.266 275.473 424.351 262.532 435.266Z" fill="#E0B216"/>
<path d="M209.091 443.851C171.565 434.37 121.973 345.997 86.9727 308.85C181.028 356.497 390.853 183.351 425.973 143.351C432.652 148.027 442.473 137.351 458.473 151.351C422.458 180.016 320.406 317.608 295.973 394.351C287.163 422.021 269.973 435.266 269.973 435.266C261.973 440.266 246.618 453.332 209.091 443.851Z" fill="#E0B216"/>
<path d="M466.517 48.3872C473.145 45.6921 479.8 42.9831 487.139 40.2521C488.331 39.8673 488.837 39.5045 489.343 39.1417C489.343 39.1417 489.455 39.2276 489.709 39.2273C490.431 38.894 490.899 38.5611 491.368 38.2282C491.368 38.2282 491.41 38.3073 491.715 38.2771C492.478 37.9069 492.936 37.5668 493.395 37.2267C493.395 37.2267 493.47 37.2835 493.839 37.2969C495.538 36.5719 496.867 35.8336 498.197 35.0953C498.197 35.0953 498.27 35.0766 498.69 35.1663C500.171 34.5725 501.231 33.8889 502.292 33.2054C502.292 33.2054 502.312 33.1638 502.327 33.1447C507.302 32.0976 511.073 32.7587 512.028 38.8638C512.25 40.2851 514.238 41.4302 515.47 43.0587C506.966 48.2478 498.4 53.0678 489.855 57.9263C488.506 58.6931 487.257 59.6343 486.403 61.3561C489.116 60.295 491.829 59.2339 494.896 58.1253C494.916 60.8413 494.581 63.6048 494.218 66.6099C492.318 67.1345 490.434 67.6545 487.428 68.4842C489.716 69.831 490.896 70.526 491.302 70.765C491.806 75.9658 492.259 80.6455 492.783 86.0509C492.844 86.032 491.539 86.436 490.062 86.8931C490.2 87.3058 490.379 87.6972 490.459 88.1079C490.689 89.3003 491.206 90.555 491.016 91.6859C490.66 93.8112 489.888 95.8667 489.197 98.5312C487.22 100.518 485.335 101.926 483.085 103.372C478.448 105.811 474.05 108.019 469.963 110.701C468.283 111.804 467.274 113.931 465.609 115.696C464.279 116.435 463.299 117.071 461.978 117.608C458.926 118.846 456.215 120.183 453.491 121.139C452.06 118.437 451.124 115.517 449.128 113.917C444.417 110.14 441.978 105.529 441.392 99.617C441.229 97.9663 440.3 96.2826 439.371 94.8407C437.793 92.3921 436.008 90.0648 434.177 87.7944C432.026 85.1285 429.736 82.5744 427.499 79.9781C426.135 78.3942 424.756 76.8221 423.384 75.2447C430.073 70.9512 436.723 66.5978 443.461 62.3841C448.398 59.2968 453.393 56.2893 458.484 53.467C460.118 52.5612 462.197 52.4922 463.962 51.7697C464.634 51.4946 464.994 50.4594 465.691 49.2542C466.073 48.5499 466.291 48.4084 466.539 48.313C466.539 48.313 466.544 48.3733 466.517 48.3872Z" fill="#0280C8"/>
<path d="M494.521 95.5505C493.742 90.1447 497.716 91.5455 501.027 91.3543C501.492 91.3767 501.55 91.4405 501.434 91.7165C500.685 92.7534 500.053 93.5144 499.041 94.318C498.089 94.8087 497.517 95.2567 496.636 95.6771C495.968 95.8408 495.608 96.0323 495.089 96.0311C494.93 95.8384 494.521 95.5505 494.521 95.5505Z" fill="#0280C8"/>
<path d="M483.449 103.333C485.335 101.926 487.22 100.518 489.318 98.8641C490.411 98.3144 491.291 98.012 492.534 97.77C492.896 97.8304 492.928 97.8672 492.778 98.0878C492.581 98.6244 492.535 98.9405 492.439 99.263C492.39 99.2694 492.374 99.3665 492.055 99.2723C490.989 99.8726 490.242 100.567 489.454 101.26C489.413 101.259 489.383 101.336 489.094 101.228C488.386 101.511 487.966 101.902 487.486 102.283C487.427 102.273 487.385 102.386 487.086 102.329C486.37 102.612 485.953 102.952 485.463 103.294C485.39 103.295 485.368 103.439 485.066 103.404C484.357 103.388 483.95 103.407 483.521 103.403C483.497 103.379 483.449 103.333 483.449 103.333Z" fill="#1F4C6E"/>
<path d="M501.463 91.3447C502.864 90.3215 504.293 89.3302 506.105 88.3494C506.487 88.3599 506.528 88.4113 506.442 88.7347C506.377 89.4759 506.398 89.8936 506.42 90.3114C506.42 90.3114 506.467 90.3529 506.111 90.1949C504.992 90.4938 504.229 90.9509 503.466 91.4079C503.466 91.4079 503.463 91.3456 503.166 91.3851C502.43 91.4299 501.99 91.4352 501.55 91.4405C501.55 91.4405 501.492 91.3766 501.463 91.3447Z" fill="#0280C8"/>
<path d="M494.355 95.7905C494.521 95.5503 494.93 95.8382 495.107 96.2098C495.158 96.8638 495.224 97.0925 495.429 97.2763C495.376 97.2852 495.365 97.391 495.056 97.2965C494.141 97.4237 493.535 97.6454 492.928 97.8672C492.928 97.8672 492.896 97.8304 492.883 97.8098C493.31 97.203 493.749 96.6169 494.355 95.7905Z" fill="#1F4C6E"/>
<path d="M508.006 88.5871C508.006 88.5871 508.02 88.4512 507.681 88.4236C507.07 88.4011 506.799 88.4061 506.528 88.4112C506.528 88.4112 506.487 88.3599 506.469 88.3323C506.944 88.0081 507.437 87.7115 508.113 87.7102C508.2 88.1994 508.103 88.3932 508.006 88.5871Z" fill="#0280C8"/>
<path d="M495.497 58.1595C495.471 57.9365 495.692 57.6771 496.182 57.4385C496.306 57.7772 496.07 57.9985 495.497 58.1595Z" fill="#0280C8"/>
<path d="M277.135 304.728C277.216 304.482 277.377 304.311 278.14 304.156C278.902 303.511 279.144 302.925 279.386 302.338C279.386 302.338 279.4 302.283 279.665 302.221C280.237 301.974 280.392 301.703 280.395 301.345C280.395 301.345 280.407 301.285 280.671 301.225C281.238 300.987 281.394 300.722 281.404 300.37C281.404 300.37 281.417 300.29 281.686 300.237C282.255 300.011 282.407 299.753 282.411 299.407C282.411 299.407 282.425 299.304 282.837 299.339C288.546 296.717 292.881 293.193 294.337 287.074C294.783 286.54 295.229 286.007 296.199 285.313C296.877 284.834 297.03 284.515 297.184 284.196C297.184 284.196 297.208 284.119 297.528 284.053C298.047 283.471 298.248 282.954 298.448 282.436C298.448 282.436 298.442 282.322 298.72 282.249C299.282 281.986 299.419 281.722 299.412 281.382C299.412 281.382 299.419 281.301 299.689 281.233C300.255 280.976 300.4 280.705 300.396 280.355C300.396 280.355 300.404 280.287 300.768 280.28C301.514 279.606 301.894 278.939 302.275 278.272C302.275 278.272 302.303 278.224 302.604 278.123C303.087 277.503 303.27 276.985 303.452 276.467C303.452 276.467 303.44 276.321 303.73 276.248C304.296 275.986 304.427 275.724 304.414 275.391C304.414 275.391 304.416 275.305 304.688 275.231C305.251 274.963 305.394 274.691 305.389 274.34C305.389 274.34 305.401 274.283 305.666 274.208C306.224 273.921 306.357 273.634 306.329 273.273C306.329 273.273 306.383 273.264 306.645 273.147C307.093 272.517 307.279 272.003 307.466 271.49C307.466 271.49 307.454 271.335 307.745 271.257C308.302 270.983 308.428 270.722 308.413 270.392C308.413 270.392 308.418 270.305 308.782 270.306C309.538 269.877 309.929 269.446 310.32 269.015C310.68 268.591 311.041 268.167 311.741 267.32C312.184 266.351 312.288 265.805 312.391 265.259C312.391 265.259 312.393 265.355 312.74 265.328C313.886 263.997 314.685 262.693 315.484 261.389C315.484 261.389 315.468 261.348 315.741 261.289C316.157 260.932 316.301 260.635 316.445 260.338C316.445 260.338 316.469 260.348 316.716 260.268C317.118 259.89 317.273 259.591 317.428 259.293C317.428 259.293 317.444 259.356 317.774 259.321C318.476 258.565 318.85 257.844 319.223 257.124C319.223 257.124 319.361 257.172 319.598 257.108C320.05 256.484 320.265 255.925 320.479 255.365C320.479 255.365 320.472 255.351 320.801 255.357C321.905 254.997 322.679 254.631 323.474 254.655C324.54 257.773 325.646 260.479 326.614 263.235C327.699 266.328 330.008 266.779 332.278 264.066C344.073 249.966 356.145 236.077 367.478 221.613C381.592 203.601 398.163 188.06 415.316 173.175C433.692 157.229 452.444 141.66 471.749 126.863C485.517 116.311 500.209 106.883 514.976 97.7393C528.216 89.5413 541.983 82.1544 555.784 74.918C564.107 70.5539 572.939 67.1601 581.542 63.3303C577.367 66.0844 573.213 68.8722 569.011 71.5867C549.007 84.5117 528.985 97.4112 508.977 110.33C490.277 122.405 473.409 136.771 457.351 152.09C444.373 164.472 431.123 176.647 419.039 189.869C406.025 204.109 394.401 219.611 381.86 234.297C362.055 257.49 347.447 284.09 332.053 310.131C322.912 325.593 315.081 341.835 306.829 357.813C304.51 362.303 302.786 367.1 300.282 372.096C296.507 373.885 294.115 372.949 292.223 369.949C289.088 364.976 286.763 359.221 280.419 357.158C279.899 356.988 279.6 356.17 279.176 355.672C275.498 351.359 272.327 346.429 268.018 342.882C261.018 337.12 256.794 330.674 258.621 321.033C261.466 318.108 264.149 315.477 266.832 312.846C266.832 312.846 266.943 312.735 267.34 312.891C269.281 311.469 270.825 309.892 272.369 308.314C272.369 308.314 272.395 308.273 272.658 308.216C273.235 307.98 273.391 307.709 273.391 307.347C273.391 307.347 273.415 307.272 273.825 307.318C275.201 306.485 276.168 305.607 277.135 304.728Z" fill="#ECC401"/>
<path d="M581.701 63.1088C572.939 67.1599 564.107 70.5536 555.784 74.9177C541.983 82.1542 528.216 89.5411 514.976 97.7391C500.209 106.882 485.517 116.311 471.749 126.863C452.443 141.66 433.691 157.229 415.316 173.175C398.163 188.06 381.592 203.601 367.478 221.613C356.144 236.077 344.073 249.965 332.278 264.066C330.008 266.779 327.699 266.328 326.613 263.235C325.646 260.479 324.539 257.772 323.484 254.302C323.477 252.851 323.481 252.142 323.484 251.433C323.484 251.433 323.473 251.353 323.749 251.284C324.325 251.01 324.462 250.727 324.436 250.366C324.436 250.366 324.441 250.323 324.704 250.243C325.112 249.871 325.257 249.579 325.403 249.287C325.403 249.287 325.443 249.272 325.772 249.282C326.975 248.058 327.85 246.825 328.911 245.449C329.335 245.1 329.539 244.864 330.054 244.534C332.168 242.184 333.937 239.899 336.018 237.488C337.459 235.768 338.587 234.173 339.899 232.433C340.313 232.077 340.515 231.841 341.005 231.479C342.412 230.069 343.502 228.759 344.802 227.265C345.248 226.581 345.483 226.081 345.902 225.436C346.317 225.081 346.517 224.844 346.878 224.439C347.296 224.074 347.498 223.831 347.968 223.472C348.717 222.745 349.173 222.112 349.837 221.291C350.296 220.604 350.549 220.107 351.13 219.539C352.206 218.514 352.955 217.561 353.98 216.489C354.718 215.75 355.178 215.13 355.908 214.313C358.829 211.729 361.765 209.583 364.057 206.89C366.813 203.652 369.021 199.947 371.465 196.391C371.464 196.337 371.571 196.33 371.8 196.281C372.325 196.052 372.467 195.789 372.452 195.387C372.452 195.333 372.56 195.327 372.789 195.272C373.313 195.035 373.456 194.77 373.449 194.374C373.45 194.326 373.547 194.321 373.779 194.26C374.306 194.001 374.444 193.726 374.428 193.343C374.429 193.313 374.488 193.301 374.724 193.238C375.264 192.981 375.414 192.704 375.419 192.325C375.426 192.305 375.465 192.289 375.706 192.231C376.257 191.982 376.411 191.705 376.416 191.322C376.424 191.304 376.46 191.286 376.702 191.227C377.254 190.973 377.407 190.694 377.417 190.318C377.43 190.309 377.45 190.284 377.706 190.203C378.103 189.808 378.243 189.494 378.538 188.889C398.323 168.491 419.208 149.807 441.767 133.023C448.621 127.923 455.468 122.813 462.318 117.707C463.299 117.071 464.279 116.435 465.925 115.675C472.241 111.885 477.89 108.219 483.838 104.523C484.547 104.142 484.958 103.791 485.368 103.439C485.368 103.439 485.39 103.295 485.756 103.345C486.542 103.059 486.964 102.722 487.385 102.386C487.385 102.386 487.427 102.273 487.782 102.339C488.552 102.049 488.967 101.693 489.383 101.336C489.383 101.336 489.413 101.259 489.805 101.33C490.923 100.722 491.648 100.044 492.374 99.3664C492.374 99.3664 492.39 99.2693 492.79 99.3476C493.915 98.7475 494.64 98.0692 495.365 97.391C495.365 97.391 495.376 97.2851 495.772 97.3777C497.28 96.9233 498.392 96.3763 499.95 95.7277C500.681 95.5244 500.968 95.4228 501.237 95.3092C501.219 95.2973 501.211 95.3106 501.414 95.0906C501.723 94.7008 501.828 94.531 501.933 94.3613C505.429 93.0498 509.021 91.9458 512.405 90.391C527.328 83.5352 542.054 76.2322 557.123 69.7186C567.754 65.1233 578.81 61.5086 589.703 57.527C591.287 56.948 593.015 56.7651 595.083 57.5088C592.14 59.0991 589.197 60.6894 585.729 62.1027C584.603 62.0947 584.001 62.2637 583.399 62.4327C582.886 62.5843 582.372 62.7358 581.701 63.1088Z" fill="#F8DA0E"/>
<path d="M263.802 434.266C263.455 429.45 267.404 430.085 270.701 429.3C271.059 429.281 271.168 429.703 271.146 429.919C270.89 430.298 270.681 430.488 270.379 430.881C269.745 431.28 269.23 431.502 268.525 431.934C266.937 432.843 265.538 433.541 263.802 434.266Z" fill="#D9AB23"/>
<path d="M583.573 62.6433C584.001 62.2637 584.603 62.0948 585.376 62.1469C584.947 62.5301 584.347 62.692 583.573 62.6433Z" fill="#ECC401"/>
<path d="M276.452 422.585C276.447 422.356 276.892 422.321 277.112 422.293C277.305 422.601 277.158 422.87 276.677 423.172C276.464 423.271 276.458 422.813 276.452 422.585Z" fill="#D9AB23"/>
<path d="M61.0382 247.405C62.8522 248.086 64.2814 248.736 66.0599 249.417C68.5715 251.949 70.6075 252.504 72.4303 248.706C72.9145 248.349 73.3521 248.347 74.3154 248.576C75.5848 248.487 76.3285 248.166 77.0723 247.845C76.2023 246.694 75.3325 245.543 74.4626 244.392C67.0421 241.046 59.6217 237.701 51.7564 234.155C52.8194 233.843 53.7459 233.572 55.0338 233.287C58.5027 233.637 61.61 234 65.0939 234.355C70.5484 236.988 75.5563 239.777 80.7212 242.237C88.0059 245.705 95.4068 248.93 103.122 252.296C109.54 254.345 115.595 256.356 122.057 258.366C128.529 260.026 134.595 261.685 141.068 263.345C147.183 264.03 152.891 264.715 158.987 265.77C156.754 268.827 155.39 271.286 159.964 273.561C160.85 274.002 161.538 275.844 161.486 277.002C161.158 284.322 160.665 291.636 160.069 298.939C159.882 301.221 159.876 303.962 158.631 305.633C154.145 311.657 157.685 315.731 160.921 319.625C164.264 319.152 167.173 318.767 170.073 318.326C173.616 317.786 177.005 316.903 178.346 313.002C180.532 306.643 182.53 300.217 184.857 293.912C185.353 292.568 186.927 290.722 187.996 290.728C189.197 290.733 190.41 292.553 191.582 293.622C193.819 295.662 196.339 297.491 198.167 299.853C199.969 302.18 202.057 305.025 202.143 307.704C202.211 309.783 199.428 311.983 197.845 314.079C196.775 315.495 195.461 316.738 194.487 318.211C193.149 320.234 192.165 322.495 190.781 324.48C189.276 326.64 187.156 328.416 185.889 330.686C183.152 335.593 184.212 337.194 189.817 337.354C192.239 337.423 195.089 336.741 195.523 340.467C192.834 340.777 190.148 341.129 187.454 341.388C183.748 341.745 180.036 342.032 175.965 341.992C178.897 338.766 178.9 335.748 175.241 334.986C171.645 334.236 167.771 334.822 164.543 334.822C165.982 337.24 167.225 339.327 168.467 341.414C146.631 342.244 126.764 335.94 108.328 324.646C104.172 322.1 100.289 319.111 95.9257 316.285C91.639 312.356 88.2113 307.691 83.6696 304.739C73.9622 298.431 63.6583 293.044 53.6624 287.172C52.6942 286.603 52.078 285.331 51.4646 284.287C50.591 282.801 49.8713 281.225 48.7678 279.515C48.3124 277.565 48.175 275.789 48.13 275.206C51.1816 272.622 53.4073 269.989 56.2422 268.59C58.2854 267.582 61.1414 268.245 63.6322 268.114C65.4762 268.017 67.3161 267.843 69.1579 267.703C67.7864 266.293 66.4149 264.883 64.6625 263.544C64.2814 263.614 64.3228 263.595 64.313 263.226C61.6605 261.716 59.0179 260.575 56.3752 259.434C56.3752 259.434 56.445 259.377 56.2812 259.154C55.5434 258.759 54.9695 258.587 54.3956 258.415C54.3956 258.415 54.4537 258.358 54.2719 258.132C53.4924 257.744 52.8947 257.582 52.297 257.421C51.9315 257.444 51.6804 257.285 51.4821 256.717C53.211 253.115 51.1204 251.138 48.6874 249.531C46.93 248.37 44.8921 247.633 42.6035 246.526C45.7699 243.155 48.7863 245.754 51.7006 246.16C54.6833 246.575 57.669 246.97 61.0382 247.405Z" fill="#01439C"/>
<path d="M358.508 119.41C361.619 117.474 364.729 115.538 368.154 113.86C367.88 116.261 367.292 118.405 367.074 119.201C373.632 124.075 379.707 128.431 385.599 133.021C389.711 136.225 393.574 139.75 398.157 143.649C397.384 144.969 396.095 147.174 394.667 149.615C397.736 152.9 398.098 159.218 404.763 158.942C402.598 161.54 400.589 163.877 398.408 166.04C390.507 173.869 382.549 181.64 374.251 189.351C371.441 184.14 368.66 179.139 366.631 173.85C364.389 168.004 362.778 161.979 357.521 157.836C354.233 155.245 351.212 152.316 347.937 149.42C348.642 148.486 349.482 147.376 350.926 145.464C346.458 144.112 342.601 142.944 337.334 141.349C344.568 139.783 346.182 135.191 347.734 130.145C351.501 126.432 355.005 122.921 358.508 119.41Z" fill="#0066B6"/>
<path d="M404.84 158.601C398.098 159.218 397.736 152.9 394.666 149.615C396.095 147.174 397.384 144.969 398.156 143.649C393.574 139.75 389.711 136.225 385.599 133.021C379.707 128.431 373.632 124.074 367.074 119.201C367.292 118.405 367.88 116.261 368.465 113.722C382.589 103.093 396.715 92.8597 411.152 82.8701C408.726 85.5006 405.924 87.8176 403.286 90.3087C402.274 91.2642 401.638 92.6171 400.83 93.7888C402.153 93.709 403.48 93.6716 404.797 93.5346C405.685 93.4423 406.568 93.0646 407.431 93.1271C407.693 93.146 408.233 94.5468 408.046 94.7424C405.119 97.8081 408.567 99.3651 409.547 101.505C410.686 103.994 412.382 106.431 412.735 109.039C413.812 116.994 413.917 125.202 421.673 130.308C421.914 130.466 422.193 130.948 422.116 131.152C419.754 137.475 425.931 137.749 428.441 140.703C425.403 143.214 422.654 145.55 419.772 147.707C414.839 151.397 409.821 154.976 404.84 158.601Z" fill="#016DBC"/>
<path d="M428.671 140.447C425.932 137.749 419.754 137.475 422.117 131.153C422.193 130.948 421.914 130.466 421.673 130.308C413.917 125.202 413.812 116.995 412.735 109.04C412.382 106.431 410.687 103.994 409.547 101.505C408.567 99.3652 405.12 97.8083 408.046 94.7426C408.233 94.5469 407.693 93.1462 407.431 93.1272C406.569 93.0648 405.685 93.4424 404.797 93.5348C403.481 93.6718 402.153 93.7092 400.831 93.789C401.638 92.6172 402.274 91.2644 403.286 90.3089C405.924 87.8178 408.726 85.5007 411.471 82.7469C415.216 80.0481 418.953 77.7166 423.038 75.3149C424.756 76.8222 426.135 78.3943 427.499 79.9782C429.736 82.5746 432.026 85.1286 434.177 87.7946C436.008 90.0649 437.793 92.3922 439.371 94.8409C440.3 96.2827 441.229 97.9664 441.392 99.6171C441.978 105.529 444.417 110.14 449.128 113.917C451.124 115.517 452.06 118.437 453.327 121.423C445.007 128.208 436.839 134.328 428.671 140.447Z" fill="#0174C2"/>
<path d="M358.497 118.984C355.005 122.921 351.501 126.432 347.422 130.276C341.187 135.547 335.583 140.552 329.831 145.38C328.292 146.671 326.299 147.421 324.515 148.419C323.395 145.683 322.141 142.991 321.211 140.191C320.755 138.82 320.254 136.836 320.888 135.841C323.491 131.764 326.524 127.96 329.446 123.712C329.806 123.255 330.062 123.066 330.379 122.591C331.133 121.926 331.772 121.473 332.47 120.707C332.827 120.27 333.078 120.081 333.397 119.622C337.151 116.98 340.788 114.543 344.481 111.763C345.829 110.652 347.121 109.883 348.475 108.768C349.486 107.973 350.433 107.523 351.456 106.743C352.617 106.082 353.704 105.751 355.131 105.385C356.311 108.143 357.25 110.911 357.951 113.738C358.336 115.293 358.32 116.948 358.497 118.984Z" fill="#024287"/>
<path d="M474.12 42.3511C473.967 42.6433 473.519 42.9746 472.796 43.382C472.955 43.1021 473.391 42.7461 474.12 42.3511Z" fill="#1F4C6E"/>
<path d="M466.377 48.4169C466.291 48.4084 466.073 48.5499 465.786 48.906C465.882 48.9073 466.058 48.7229 466.377 48.4169Z" fill="#D3F2FA"/>
<path d="M472.361 43.4778C472.396 43.6807 472.22 43.955 471.796 44.2068C471.677 43.9044 471.878 43.6926 472.361 43.4778Z" fill="#1F4C6E"/>
<path d="M195.936 340.444C195.088 336.741 192.238 337.423 189.816 337.354C184.212 337.194 183.151 335.593 185.889 330.686C187.155 328.416 189.276 326.64 190.781 324.48C192.165 322.495 193.149 320.234 194.486 318.211C195.461 316.738 196.775 315.495 197.844 314.079C199.427 311.983 202.211 309.783 202.143 307.704C202.056 305.025 199.969 302.18 198.167 299.853C196.339 297.491 193.819 295.662 191.582 293.622C190.409 292.553 189.197 290.733 187.995 290.728C186.926 290.722 185.353 292.568 184.857 293.912C182.529 300.217 180.532 306.643 178.346 313.002C177.005 316.903 173.616 317.786 170.073 318.326C167.173 318.767 164.264 319.152 160.92 319.625C157.685 315.731 154.144 311.657 158.631 305.633C159.875 303.962 159.882 301.221 160.068 298.939C160.665 291.636 161.157 284.322 161.485 277.002C161.537 275.844 160.849 274.002 159.964 273.561C155.39 271.286 156.754 268.827 159.424 265.801C161.518 265.431 163.562 265.4 166.209 265.58C167.366 265.389 167.92 264.985 168.474 264.581C171.274 264.362 174.074 264.142 177.174 263.658C179.551 263.107 181.628 262.821 184.201 262.918C188.39 262.982 192.162 263.005 195.739 262.18C197.201 261.843 198.24 259.674 199.472 258.337C199.472 258.337 199.888 258.273 200.343 258.208C201.02 257.894 201.24 257.645 201.46 257.395C201.46 257.395 201.913 257.319 202.53 257.326C205.23 256.312 209.073 258.891 209.398 254.276C209.398 254.276 209.403 254.314 209.823 254.321C212.284 253.822 214.373 253.454 216.358 252.78C220.031 251.533 223.643 250.108 226.714 248.967C231.192 245.442 235.745 242.357 239.678 238.621C243.605 234.89 246.912 230.506 250.491 226.408C258.618 217.817 266.746 209.227 275.163 200.465C275.951 200.047 276.449 199.801 277.217 199.825C277.774 201.525 278.063 202.954 278.349 204.373C276.66 204.794 275.164 205.168 274.567 205.317C275.324 208.903 275.743 211.667 276.522 214.325C277.14 216.431 277.812 218.716 279.138 220.382C282.753 224.922 289.091 227.335 289.753 234.207C289.794 234.641 290.826 234.901 291.175 235.398C292.989 237.986 294.717 240.634 296.5 243.244C299.452 247.568 298.599 253.943 304.322 256.905C306.411 257.986 308.925 260.076 305.928 263.282C305.331 263.92 306.283 266.006 306.521 267.425C301.726 273.327 296.931 279.228 291.603 285.017C284.204 283.646 287.003 289.632 285.473 292.373C284.004 293.916 282.534 295.46 280.408 297.184C276.853 297.149 275.227 298.269 275.514 301.399C275.514 301.399 275.481 301.367 275.126 301.37C273.35 302.728 271.931 304.083 270.511 305.438C269.709 306.012 268.908 306.586 267.536 307.056C264.1 302.699 265.117 299.595 269.589 297.227C270.751 296.612 271.642 295.307 272.407 294.153C274.261 291.358 275.694 288.241 277.805 285.67C280.384 282.528 283.582 279.9 286.276 276.842C286.865 276.173 286.938 273.974 286.426 273.597C284.205 271.961 281.718 270.666 279.256 269.383C275.8 267.583 272.364 265.706 268.773 264.216C262.136 261.463 255.449 258.795 248.627 256.571C247.712 256.272 244.884 258.599 244.666 259.982C243.828 265.288 249.758 273.751 254.98 274.957C257.86 275.622 258.824 277.059 259.656 279.81C260.433 282.381 262.604 284.605 264.424 286.76C265.668 288.232 267.361 289.325 267.91 289.789C264.844 293.837 262.494 296.984 260.098 300.096C256.664 304.555 252.298 307.495 246.693 308.646C245.56 308.879 244.64 310.153 243.622 310.947C244.86 311.597 246.07 312.698 247.344 312.779C248.827 312.874 250.367 312.074 252.61 311.465C252.171 314.634 251.84 317.029 251.508 319.424C250.75 319.773 249.992 320.122 248.737 320.168C246.741 317.951 245.2 316.277 242.84 318.757C243.783 320.416 244.631 321.907 245.479 323.398C240.661 325.407 235.852 327.437 231.022 329.415C228.482 330.455 225.905 331.404 222.578 332.385C219.316 332.117 216.821 331.858 214.268 331.593C213.829 332.998 213.15 335.173 212.47 337.349C207.097 338.373 201.723 339.397 195.936 340.444Z" fill="#01459F"/>
<path d="M250.185 226.539C246.912 230.506 243.606 234.89 239.678 238.621C235.745 242.357 231.192 245.442 226.715 248.967C223.643 250.108 220.031 251.533 216.359 252.78C214.373 253.454 212.284 253.822 209.834 254.307C215.562 250.73 221.782 247.31 227.804 243.571C231.427 241.321 234.742 238.575 238.699 235.699C239.988 234.38 240.773 233.415 241.559 232.449C241.559 232.449 241.592 232.444 241.608 232.459C244.375 230.54 247.127 228.605 250.185 226.539Z" fill="#01439C"/>
<path d="M199.091 258.375C198.24 259.673 197.201 261.843 195.739 262.18C192.162 263.005 188.39 262.982 184.591 262.962C189.227 261.221 193.969 259.817 199.091 258.375Z" fill="#01439C"/>
<path d="M209.043 254.315C209.074 258.891 205.23 256.312 202.76 257.316C204.477 256.317 206.583 255.335 209.043 254.315Z" fill="#01439C"/>
<path d="M241.177 232.425C240.773 233.415 239.988 234.38 238.874 235.411C239.295 234.451 240.045 233.426 241.177 232.425Z" fill="#01255C"/>
<path d="M201.224 257.478C201.24 257.644 201.02 257.894 200.554 258.217C200.535 258.048 200.761 257.804 201.224 257.478Z" fill="#01439C"/>
<path d="M54.2783 230.135C52.4012 229.745 50.5264 228.984 48.416 227.983C50.2138 228.417 52.2471 229.091 54.2783 230.135Z" fill="#1F4C6E"/>
<path d="M168.184 264.543C167.92 264.985 167.366 265.389 166.647 265.582C166.953 265.083 167.424 264.794 168.184 264.543Z" fill="#01439C"/>
<path d="M306.815 267.258C306.283 266.006 305.331 263.92 305.928 263.282C308.925 260.076 306.411 257.986 304.322 256.905C298.6 253.943 299.452 247.568 296.5 243.244C294.717 240.634 292.989 237.986 291.175 235.398C290.826 234.901 289.795 234.641 289.753 234.207C289.091 227.335 282.753 224.922 279.138 220.381C277.812 218.716 277.14 216.431 276.522 214.325C275.743 211.667 275.324 208.903 274.567 205.317C275.164 205.168 276.661 204.794 278.349 204.372C278.063 202.954 277.774 201.525 277.475 199.719C285.598 190.363 293.747 181.398 301.849 172.39C303.394 170.672 304.752 168.787 306.341 166.675C307.957 165.133 309.43 163.895 311.187 162.891C309.446 166.418 307.419 169.712 305.8 172.342C308.652 175.567 311.115 178.318 313.534 181.106C314.5 182.219 315.322 183.457 316.294 184.565C318.748 187.364 321.293 190.084 323.715 192.91C325.11 194.537 326.24 196.394 327.66 197.997C329.985 200.62 333.651 202.502 331.739 207.136C331.435 207.874 332.279 209.589 333.085 210.198C337.426 213.473 339.65 216.957 334.338 221.456C337.614 222.289 340.08 222.916 342.5 223.872C337.626 230.278 332.731 236.302 328.022 242.469C326.917 243.917 326.443 245.846 325.683 247.569C325.689 247.585 325.716 247.607 325.716 247.607C323.705 249.078 321.377 250.264 319.746 252.077C315.374 256.938 311.301 262.068 306.815 267.258Z" fill="#014EA4"/>
<path d="M264.146 180.932C264.385 181.049 264.59 181.223 264.795 181.396C264.609 181.401 264.423 181.406 264.118 181.234C263.999 181.057 264.112 180.989 264.146 180.932Z" fill="#01255C"/>
<path d="M251.814 319.26C251.84 317.029 252.171 314.634 252.61 311.465C250.367 312.074 248.827 312.874 247.344 312.779C246.07 312.698 244.86 311.597 243.622 310.947C244.64 310.153 245.56 308.879 246.693 308.646C252.298 307.495 256.664 304.555 260.098 300.096C262.494 296.984 264.844 293.837 267.91 289.789C267.361 289.325 265.668 288.232 264.424 286.76C262.604 284.605 260.433 282.381 259.656 279.81C258.824 277.059 257.86 275.622 254.98 274.957C249.758 273.751 243.828 265.288 244.666 259.982C244.884 258.599 247.712 256.272 248.627 256.571C255.449 258.795 262.136 261.463 268.773 264.216C272.364 265.706 275.8 267.583 279.256 269.383C281.718 270.666 284.206 271.961 286.426 273.597C286.938 273.974 286.865 276.173 286.276 276.842C283.582 279.9 280.384 282.528 277.805 285.67C275.694 288.241 274.261 291.358 272.407 294.153C271.642 295.307 270.751 296.612 269.589 297.227C265.117 299.595 264.1 302.699 267.265 307.186C262.416 311.313 257.268 315.205 251.814 319.26Z" fill="#01439C"/>
<path d="M168.864 341.419C167.224 339.327 165.982 337.24 164.542 334.822C167.77 334.822 171.645 334.236 175.241 334.986C178.899 335.748 178.897 338.766 175.537 341.979C173.4 342.023 171.331 341.723 168.864 341.419Z" fill="#01459F"/>
<path d="M294.027 287.219C292.881 293.193 288.546 296.717 282.889 299.338C286.258 295.322 289.987 291.343 294.027 287.219Z" fill="#D9AB23"/>
<path d="M212.838 337.309C213.15 335.173 213.829 332.998 214.268 331.593C216.821 331.858 219.316 332.117 222.186 332.386C219.442 334.021 216.324 335.646 212.838 337.309Z" fill="#01439C"/>
<path d="M285.777 292.232C287.003 289.632 284.204 283.646 291.318 285.192C289.737 287.684 287.909 289.887 285.777 292.232Z" fill="#01439C"/>
<path d="M258.621 321.033C257.391 321.336 256.324 321.346 254.858 321.313C258.373 318.435 262.285 315.598 266.514 312.803C264.149 315.477 261.466 318.108 258.621 321.033Z" fill="#D9AB23"/>
<path d="M245.814 323.358C244.631 321.907 243.783 320.416 242.84 318.757C245.2 316.278 246.741 317.951 248.408 320.188C247.767 321.446 246.959 322.382 245.814 323.358Z" fill="#01439C"/>
<path d="M230.931 333.18C229.593 334.561 227.891 335.918 225.835 337.325C224.398 337.361 223.314 337.346 221.829 337.276C224.473 335.866 227.519 334.511 230.931 333.18Z" fill="#D9AB23"/>
<path d="M244 327.231C243.326 330.962 240.466 331.475 236.836 331.287C238.84 329.89 241.243 328.547 244 327.231Z" fill="#D9AB23"/>
<path d="M272.029 308.284C270.825 309.892 269.281 311.469 267.402 312.844C268.607 311.178 270.148 309.716 272.029 308.284Z" fill="#D9AB23"/>
<path d="M275.847 301.362C275.227 298.269 276.854 297.149 280.152 297.378C279.095 298.703 277.637 300.014 275.847 301.362Z" fill="#01439C"/>
<path d="M270.842 305.384C271.931 304.083 273.35 302.728 275.14 301.382C274.064 302.704 272.619 304.017 270.842 305.384Z" fill="#01439C"/>
<path d="M220.94 337.143C219.616 337.907 217.934 338.617 215.84 339.271C217.145 338.507 218.863 337.799 220.94 337.143Z" fill="#D9AB23"/>
<path d="M328.724 245.591C327.85 246.825 326.976 248.059 325.749 249.278C325.47 248.898 325.543 248.534 325.666 247.888C325.716 247.607 325.689 247.585 325.969 247.472C326.978 246.68 327.708 246 328.51 245.387C328.582 245.454 328.724 245.591 328.724 245.591Z" fill="#E0C434"/>
<path d="M315.184 261.503C314.685 262.693 313.886 263.997 312.722 265.283C313.199 264.049 314.041 262.833 315.184 261.503Z" fill="#E0C434"/>
<path d="M236.009 331.168C234.96 331.934 233.563 332.636 231.794 333.279C232.834 332.514 234.248 331.809 236.009 331.168Z" fill="#D9AB23"/>
<path d="M323.184 251.538C323.481 252.142 323.477 252.851 323.464 253.913C322.679 254.631 321.905 254.997 320.808 255.359C321.285 254.118 322.084 252.881 323.184 251.538Z" fill="#E0C434"/>
<path d="M276.802 304.67C276.168 305.607 275.201 306.485 273.864 307.318C274.485 306.385 275.477 305.499 276.802 304.67Z" fill="#D9AB23"/>
<path d="M318.92 257.185C318.85 257.844 318.476 258.565 317.757 259.291C317.813 258.612 318.215 257.929 318.92 257.185Z" fill="#E0C434"/>
<path d="M301.986 278.323C301.894 278.939 301.513 279.606 300.801 280.272C300.879 279.638 301.288 279.006 301.986 278.323Z" fill="#D9AB23"/>
<path d="M246.094 326.223C245.946 326.624 245.493 326.967 244.735 327.281C244.884 326.889 245.336 326.527 246.094 326.223Z" fill="#D9AB23"/>
<path d="M307.194 271.583C307.279 272.003 307.093 272.517 306.633 273.122C306.547 272.702 306.735 272.19 307.194 271.583Z" fill="#D9AB23"/>
<path d="M247.986 325.118C247.878 325.541 247.468 325.92 246.751 326.277C246.858 325.862 247.272 325.469 247.986 325.118Z" fill="#D9AB23"/>
<path d="M251.107 323.257C250.973 323.634 250.543 323.985 249.816 324.321C249.95 323.948 250.381 323.589 251.107 323.257Z" fill="#D9AB23"/>
<path d="M279.055 302.405C279.144 302.925 278.902 303.511 278.315 304.114C278.22 303.578 278.472 303.025 279.055 302.405Z" fill="#D9AB23"/>
<path d="M298.179 282.523C298.248 282.954 298.047 283.471 297.555 284.023C297.478 283.575 297.694 283.093 298.179 282.523Z" fill="#D9AB23"/>
<path d="M303.185 276.567C303.269 276.985 303.087 277.503 302.629 278.111C302.542 277.689 302.73 277.178 303.185 276.567Z" fill="#D9AB23"/>
<path d="M310.015 269.069C309.929 269.446 309.538 269.876 308.825 270.3C308.906 269.902 309.308 269.512 310.015 269.069Z" fill="#D9AB23"/>
<path d="M312.095 265.359C312.288 265.805 312.184 266.351 311.849 267.059C311.678 266.635 311.739 266.047 312.095 265.359Z" fill="#E0C434"/>
<path d="M320.197 255.483C320.265 255.924 320.05 256.484 319.526 257.118C319.449 256.662 319.682 256.132 320.197 255.483Z" fill="#E0C434"/>
<path d="M282.168 299.436C282.407 299.753 282.255 300.011 281.727 300.233C281.455 299.913 281.597 299.64 282.168 299.436Z" fill="#D9AB23"/>
<path d="M308.184 270.443C308.428 270.721 308.302 270.983 307.821 271.242C307.541 270.957 307.658 270.686 308.184 270.443Z" fill="#D9AB23"/>
<path d="M306.069 273.307C306.357 273.634 306.224 273.92 305.694 274.2C305.575 273.96 305.692 273.651 306.069 273.307Z" fill="#D9AB23"/>
<path d="M305.134 274.365C305.394 274.691 305.251 274.963 304.73 275.222C304.627 274.989 304.753 274.69 305.134 274.365Z" fill="#D9AB23"/>
<path d="M304.183 275.436C304.427 275.724 304.296 275.986 303.802 276.236C303.53 275.946 303.652 275.674 304.183 275.436Z" fill="#D9AB23"/>
<path d="M300.149 280.392C300.4 280.705 300.254 280.976 299.729 281.227C299.448 280.915 299.582 280.628 300.149 280.392Z" fill="#D9AB23"/>
<path d="M299.175 281.425C299.419 281.721 299.281 281.986 298.777 282.24C298.513 281.948 298.641 281.669 299.175 281.425Z" fill="#D9AB23"/>
<path d="M296.894 284.233C297.03 284.515 296.877 284.834 296.449 285.221C296.318 284.949 296.461 284.61 296.894 284.233Z" fill="#D9AB23"/>
<path d="M281.15 300.396C281.394 300.722 281.238 300.987 280.701 301.219C280.61 300.989 280.753 300.705 281.15 300.396Z" fill="#D9AB23"/>
<path d="M280.136 301.367C280.392 301.703 280.237 301.974 279.693 302.215C279.596 301.977 279.737 301.683 280.136 301.367Z" fill="#D9AB23"/>
<path d="M273.112 307.342C273.391 307.709 273.235 307.979 272.681 308.211C272.573 307.953 272.703 307.645 273.112 307.342Z" fill="#D9AB23"/>
<path d="M254.105 321.33C254.143 321.593 253.88 321.87 253.319 322.178C253.282 321.92 253.543 321.632 254.105 321.33Z" fill="#D9AB23"/>
<path d="M252.268 322.452C252.423 322.772 252.214 323.013 251.667 323.22C251.619 323 251.81 322.73 252.268 322.452Z" fill="#D9AB23"/>
<path d="M249.154 324.376C249.358 324.725 249.165 324.972 248.594 325.134C248.532 324.897 248.713 324.638 249.154 324.376Z" fill="#D9AB23"/>
<path d="M316.187 260.388C316.301 260.635 316.157 260.932 315.762 261.291C315.651 261.048 315.791 260.743 316.187 260.388Z" fill="#E0C434"/>
<path d="M317.153 259.325C317.273 259.591 317.118 259.89 316.71 260.256C316.597 260.002 316.738 259.68 317.153 259.325Z" fill="#E0C434"/>
<path d="M324.187 250.414C324.462 250.727 324.325 251.01 323.79 251.279C323.682 251.049 323.81 250.756 324.187 250.414Z" fill="#E0C434"/>
<path d="M325.137 249.324C325.257 249.579 325.112 249.871 324.724 250.237C324.612 249.994 324.741 249.678 325.137 249.324Z" fill="#E0C434"/>
<path d="M342.545 223.542C340.08 222.916 337.614 222.289 334.338 221.457C339.65 216.957 337.426 213.473 333.085 210.198C332.279 209.589 331.435 207.874 331.739 207.136C333.651 202.502 329.985 200.62 327.66 197.997C326.24 196.394 325.11 194.537 323.715 192.91C321.293 190.084 318.748 187.364 316.294 184.565C315.323 183.457 314.5 182.219 313.534 181.106C311.115 178.318 308.652 175.567 305.8 172.342C307.419 169.712 309.446 166.418 311.482 162.763C315.726 157.933 319.961 153.464 324.355 148.707C326.3 147.421 328.293 146.671 329.831 145.379C335.583 140.552 341.187 135.547 347.158 130.478C346.182 135.191 344.568 139.782 337.334 141.349C342.601 142.944 346.458 144.111 350.926 145.464C349.482 147.376 348.643 148.486 347.937 149.42C351.212 152.316 354.233 155.245 357.521 157.836C362.778 161.979 364.39 168.003 366.631 173.85C368.66 179.139 371.441 184.14 374.078 189.638C371.686 193.479 369.105 196.95 366.507 200.405C366.49 200.389 366.534 200.378 366.268 200.44C365.84 200.812 365.678 201.121 365.5 201.396C365.484 201.361 365.554 201.394 365.286 201.45C364.851 201.812 364.683 202.119 364.498 202.393C364.48 202.36 364.549 202.391 364.281 202.461C363.86 202.849 363.706 203.167 363.538 203.443C363.524 203.401 363.609 203.429 363.332 203.48C362.886 203.847 362.717 204.163 362.548 204.428C362.548 204.378 362.608 204.459 362.252 204.431C358.339 207.129 353.967 209.189 353.577 214.48C353.552 214.429 353.656 214.477 353.297 214.447C349.474 217.46 346.01 220.501 342.545 223.542Z" fill="#015BAE"/>
<path d="M6.55511 255.414C4.86993 255.08 3.59645 254.668 1.99179 254.188C1.10707 253.803 0.553535 253.485 0 253.167C0.061111 252.767 0.122216 252.368 0.183327 251.968C4.14359 252.579 8.10385 253.19 12.3855 254.034C10.7935 254.623 8.88015 254.979 6.55511 255.414Z" fill="#1F4C6E"/>
<path d="M40.8296 274.181C42.2053 273.573 43.6848 273.324 45.2608 272.754C45.6907 275.492 45.0753 275.785 40.8296 274.181Z" fill="#1F4C6E"/>
<path d="M36.8984 273.166C37.9444 273.029 39.0744 273.274 40.455 273.759C39.4646 273.849 38.2235 273.698 36.8984 273.166Z" fill="#1F4C6E"/>
<path d="M23.1794 261.066C22.7175 261.251 22.0062 261.173 21.0439 260.83C21.5054 260.644 22.2177 260.723 23.1794 261.066Z" fill="#1F4C6E"/>
<path d="M28.3759 262.266C28.0484 262.474 27.5982 262.455 26.8398 262.286C27.1055 262.104 27.6794 262.071 28.3759 262.266Z" fill="#1F4C6E"/>
<path d="M32.1738 263.262C31.6743 263.431 30.9679 263.282 30.0166 262.861C30.5034 262.708 31.2352 262.826 32.1738 263.262Z" fill="#1F4C6E"/>
<path d="M45.3655 272.12C44.9935 272.032 44.6178 271.62 44.1392 270.944C44.478 271.052 44.9199 271.424 45.3655 272.12Z" fill="#1F4C6E"/>
<path d="M44.1054 270.463C43.6718 270.468 43.2052 270.155 42.5884 269.601C42.9829 269.621 43.5276 269.883 44.1054 270.463Z" fill="#1F4C6E"/>
<path d="M40.1434 267.433C39.6689 267.509 39.0996 267.252 38.3511 266.736C38.7974 266.685 39.423 266.892 40.1434 267.433Z" fill="#1F4C6E"/>
<path d="M36.2336 265.207C35.8159 265.307 35.2443 265.137 34.5029 264.716C34.9153 264.623 35.4974 264.78 36.2336 265.207Z" fill="#1F4C6E"/>
<path d="M34.2502 264.238C33.8268 264.347 33.2448 264.177 32.4785 263.765C32.8934 263.668 33.4925 263.814 34.2502 264.238Z" fill="#1F4C6E"/>
<path d="M42.3475 269.147C42.1558 269.229 41.839 269.077 41.4121 268.676C41.6089 268.589 41.9156 268.752 42.3475 269.147Z" fill="#1F4C6E"/>
<path d="M41.2876 268.267C41.0738 268.391 40.7363 268.257 40.2603 267.885C40.4691 267.768 40.8165 267.888 41.2876 268.267Z" fill="#1F4C6E"/>
<path d="M56.5947 259.696C59.0178 260.575 61.6604 261.716 64.2919 263.226C61.7919 262.383 59.3031 261.171 56.5947 259.696Z" fill="#054B92"/>
<path d="M54.5825 258.649C54.9693 258.587 55.5433 258.759 56.2731 259.198C55.8758 259.271 55.3227 259.077 54.5825 258.649Z" fill="#054B92"/>
<path d="M52.4946 257.66C52.8944 257.582 53.4921 257.744 54.2643 258.171C53.8567 258.258 53.2746 258.079 52.4946 257.66Z" fill="#054B92"/>
<path d="M49.7227 261.091C49.7729 260.812 50.0723 260.779 50.3717 260.746C50.2384 260.944 50.1052 261.141 49.7227 261.091Z" fill="#054B92"/>
<path d="M47.7686 259.604C48.0692 259.609 48.1405 259.821 48.2117 260.033C47.9876 259.959 47.7635 259.884 47.7686 259.604Z" fill="#054B92"/>
<path d="M497.862 35.1152C496.867 35.8336 495.538 36.5719 493.802 37.2757C494.773 36.5392 496.15 35.8372 497.862 35.1152Z" fill="#078ACC"/>
<path d="M501.969 33.2263C501.231 33.8889 500.171 34.5724 498.724 35.1828C499.441 34.4889 500.543 33.868 501.969 33.2263Z" fill="#078ACC"/>
<path d="M491.07 38.2253C490.899 38.5612 490.431 38.8941 489.653 39.1917C489.821 38.845 490.297 38.5337 491.07 38.2253Z" fill="#078ACC"/>
<path d="M489.026 39.1567C488.836 39.5047 488.33 39.8675 487.488 40.2051C487.67 39.8438 488.19 39.5077 489.026 39.1567Z" fill="#078ACC"/>
<path d="M493.097 37.2336C492.936 37.567 492.478 37.907 491.715 38.2325C491.873 37.8921 492.336 37.5662 493.097 37.2336Z" fill="#078ACC"/>
<path d="M74.4663 244.787C75.3324 245.543 76.2023 246.694 77.0722 247.845C76.3285 248.166 75.5848 248.487 74.6437 248.578C74.4542 247.293 74.4621 246.238 74.4663 244.787Z" fill="#054B92"/>
<path d="M478.604 39.7727C477.847 39.5503 477.067 39.2936 476.286 39.0369C476.545 38.6717 476.805 38.3064 477.064 37.9412C477.61 38.3391 478.156 38.737 478.665 39.4594C478.628 39.7838 478.579 39.7384 478.604 39.7727Z" fill="#054B92"/>
<path d="M561.465 8.34097C561.767 8.07105 562.059 7.78424 562.398 7.57144C562.452 7.53784 562.715 7.83893 562.882 7.98532C562.597 8.09659 562.312 8.20789 561.755 8.34003C561.483 8.3609 561.471 8.34848 561.465 8.34097Z" fill="#078ACC"/>
<path d="M262.73 435.172C262.61 434.97 262.774 434.734 263.221 434.46C263.34 434.658 263.177 434.897 262.73 435.172Z" fill="#D9AB23"/>
<path d="M366.524 200.421C369.105 196.95 371.686 193.479 374.44 189.72C382.549 181.64 390.507 173.869 398.407 166.04C400.589 163.877 402.598 161.539 404.763 158.942C409.821 154.976 414.839 151.397 419.772 147.707C422.654 145.55 425.403 143.214 428.441 140.703C436.839 134.328 445.007 128.208 453.34 121.805C456.215 120.183 458.926 118.846 461.977 117.608C455.468 122.813 448.621 127.923 441.767 133.023C419.208 149.807 398.323 168.491 378.281 188.971C377.73 189.658 377.59 189.971 377.449 190.284C377.449 190.284 377.429 190.309 377.157 190.348C376.742 190.687 376.601 190.987 376.46 191.286C376.46 191.286 376.424 191.304 376.16 191.357C375.752 191.703 375.609 191.996 375.465 192.289C375.465 192.289 375.426 192.305 375.165 192.365C374.766 192.717 374.627 193.009 374.488 193.301C374.488 193.301 374.429 193.313 374.188 193.392C373.647 193.676 373.514 193.96 373.547 194.321C373.547 194.321 373.45 194.326 373.21 194.414C372.654 194.688 372.517 194.963 372.56 195.327C372.56 195.327 372.452 195.333 372.217 195.428C371.673 195.704 371.535 195.973 371.571 196.33C371.571 196.33 371.464 196.337 371.158 196.481C369.41 197.891 367.967 199.156 366.524 200.421Z" fill="#1F4C6E"/>
<path d="M483.539 104.553C477.89 108.219 472.241 111.885 466.276 115.572C467.274 113.931 468.283 111.804 469.963 110.701C474.05 108.019 478.448 105.811 483.085 103.373C483.449 103.333 483.497 103.379 483.474 103.684C483.481 104.177 483.51 104.365 483.539 104.553Z" fill="#1F4C6E"/>
<path d="M499.505 95.8293C498.392 96.3764 497.28 96.9234 495.824 97.3689C495.224 97.0925 495.158 96.8638 495.266 96.4025C495.608 96.0321 495.968 95.8407 496.777 95.9554C497.986 96.1174 498.745 95.9734 499.505 95.8293Z" fill="#E0C434"/>
<path d="M495.056 97.2966C494.64 98.0694 493.915 98.7477 492.839 99.3413C492.535 98.9406 492.581 98.6245 492.778 98.0878C493.534 97.6455 494.141 97.4238 495.056 97.2966Z" fill="#E0C434"/>
<path d="M492.055 99.2725C491.648 100.044 490.923 100.722 489.846 101.331C490.242 100.567 490.989 99.8727 492.055 99.2725Z" fill="#E0C434"/>
<path d="M487.086 102.329C486.964 102.723 486.542 103.059 485.829 103.344C485.953 102.952 486.37 102.612 487.086 102.329Z" fill="#E0C434"/>
<path d="M489.094 101.229C488.968 101.693 488.552 102.049 487.841 102.349C487.966 101.902 488.386 101.511 489.094 101.229Z" fill="#E0C434"/>
<path d="M483.838 104.523C483.51 104.365 483.481 104.177 483.498 103.708C483.951 103.407 484.357 103.388 485.066 103.404C484.958 103.791 484.547 104.142 483.838 104.523Z" fill="#E0C434"/>
<path d="M366.507 200.405C367.967 199.156 369.41 197.891 371.159 196.535C369.021 199.947 366.813 203.652 364.057 206.89C361.765 209.584 358.829 211.729 355.764 214.172C355.349 214.227 355.061 213.942 355.205 213.643C357.769 210.382 360.188 207.421 362.608 204.459C362.608 204.459 362.548 204.378 362.833 204.391C363.281 204.079 363.445 203.754 363.609 203.429C363.609 203.429 363.523 203.401 363.819 203.393C364.26 203.054 364.404 202.723 364.549 202.392C364.549 202.392 364.48 202.36 364.78 202.359C365.237 202.037 365.395 201.716 365.553 201.395C365.553 201.395 365.483 201.361 365.779 201.356C366.227 201.027 366.381 200.703 366.534 200.378C366.534 200.378 366.49 200.389 366.507 200.405Z" fill="#E0C434"/>
<path d="M335.706 237.613C333.937 239.899 332.168 242.184 329.972 244.449C329.545 244.428 329.381 244.257 329.509 243.952C331.521 241.495 333.406 239.344 335.396 237.295C335.502 237.399 335.706 237.613 335.706 237.613Z" fill="#E0C434"/>
<path d="M339.715 232.577C338.587 234.173 337.459 235.768 336.019 237.489C335.706 237.613 335.502 237.399 335.499 236.987C336.776 235.125 338.058 233.674 339.433 232.312C339.527 232.4 339.715 232.577 339.715 232.577Z" fill="#E0C434"/>
<path d="M344.592 227.449C343.502 228.759 342.412 230.069 340.897 231.373C340.472 231.366 340.252 231.157 340.355 230.854C341.612 229.308 342.766 228.066 344.087 226.981C344.254 227.138 344.592 227.449 344.592 227.449Z" fill="#E0C434"/>
<path d="M353.703 216.608C352.955 217.561 352.207 218.514 351.037 219.469C350.615 219.469 350.437 219.318 350.54 219.028C351.496 217.864 352.348 216.99 353.329 216.237C353.456 216.358 353.703 216.608 353.703 216.608Z" fill="#E0C434"/>
<path d="M349.63 221.48C349.174 222.112 348.717 222.745 347.845 223.351C347.428 223.325 347.178 223.088 347.28 222.816C347.914 221.99 348.447 221.436 349.141 221.032C349.303 221.183 349.63 221.48 349.63 221.48Z" fill="#E0C434"/>
<path d="M355.493 214.368C355.178 215.13 354.718 215.75 353.98 216.489C353.703 216.608 353.456 216.358 353.413 215.963C353.465 215.204 353.56 214.84 353.655 214.477C353.655 214.477 353.551 214.429 353.843 214.452C354.443 214.297 354.752 214.12 355.061 213.942C355.061 213.942 355.349 214.227 355.493 214.368Z" fill="#E0C434"/>
<path d="M345.718 225.58C345.483 226.081 345.248 226.581 344.802 227.265C344.592 227.449 344.254 227.138 344.211 226.735C344.559 225.964 344.951 225.596 345.436 225.316C345.53 225.404 345.718 225.58 345.718 225.58Z" fill="#E0C434"/>
<path d="M350.708 219.54C350.549 220.107 350.296 220.604 349.837 221.291C349.63 221.48 349.303 221.183 349.271 220.79C349.638 220.038 350.038 219.678 350.437 219.318C350.437 219.318 350.615 219.469 350.708 219.54Z" fill="#E0C434"/>
<path d="M347.552 223.446C347.498 223.831 347.296 224.074 346.774 224.332C346.479 224.367 346.267 224.154 346.34 223.918C346.584 223.375 346.839 223.177 347.178 223.088C347.178 223.088 347.428 223.325 347.552 223.446Z" fill="#E0C434"/>
<path d="M346.583 224.474C346.518 224.844 346.317 225.081 345.902 225.436C345.718 225.58 345.53 225.404 345.512 225.078C345.668 224.445 345.926 224.245 346.267 224.154C346.267 224.154 346.479 224.367 346.583 224.474Z" fill="#E0C434"/>
<path d="M340.579 231.473C340.515 231.841 340.313 232.077 339.899 232.433C339.715 232.577 339.527 232.4 339.51 232.078C339.665 231.453 339.918 231.254 340.252 231.156C340.252 231.156 340.471 231.366 340.579 231.473Z" fill="#E0C434"/>
<path d="M329.627 244.513C329.539 244.864 329.335 245.1 328.911 245.449C328.724 245.591 328.582 245.454 328.579 245.142C328.844 244.639 329.113 244.448 329.381 244.257C329.381 244.257 329.545 244.428 329.627 244.513Z" fill="#E0C434"/>
<path d="M501.237 95.3093C501.255 95.3212 501.11 95.0898 501.082 94.9582C501.054 94.8266 501.172 95.0553 501.191 95.183C501.211 95.3107 501.219 95.2974 501.237 95.3093Z" fill="#E0C434"/>
<path d="M374.724 193.238C374.627 193.009 374.766 192.717 375.158 192.385C375.414 192.705 375.264 192.981 374.724 193.238Z" fill="#E0C434"/>
<path d="M377.706 190.203C377.59 189.971 377.73 189.658 378.127 189.263C378.243 189.495 378.103 189.808 377.706 190.203Z" fill="#E0C434"/>
<path d="M376.702 191.227C376.601 190.987 376.743 190.687 377.144 190.358C377.407 190.694 377.254 190.974 376.702 191.227Z" fill="#E0C434"/>
<path d="M375.706 192.231C375.609 191.996 375.752 191.703 376.152 191.375C376.411 191.705 376.257 191.982 375.706 192.231Z" fill="#E0C434"/>
<path d="M373.779 194.26C373.514 193.96 373.647 193.677 374.187 193.422C374.444 193.727 374.306 194.002 373.779 194.26Z" fill="#E0C434"/>
<path d="M372.789 195.272C372.517 194.963 372.654 194.688 373.208 194.462C373.456 194.77 373.313 195.035 372.789 195.272Z" fill="#E0C434"/>
<path d="M371.8 196.281C371.535 195.973 371.673 195.704 372.217 195.483C372.467 195.789 372.326 196.052 371.8 196.281Z" fill="#E0C434"/>
<path d="M329.509 243.952C329.113 244.448 328.844 244.639 328.506 245.075C327.708 246 326.978 246.68 325.963 247.457C326.443 245.846 326.917 243.917 328.022 242.469C332.731 236.303 337.626 230.279 342.5 223.872C346.01 220.501 349.474 217.46 353.297 214.448C353.56 214.84 353.465 215.204 353.285 215.842C352.348 216.99 351.495 217.864 350.54 219.028C350.038 219.678 349.638 220.038 349.109 220.64C348.447 221.436 347.914 221.99 347.28 222.816C346.839 223.177 346.584 223.375 346.34 223.918C345.926 224.245 345.668 224.445 345.418 224.99C344.951 225.596 344.559 225.964 344.043 226.578C342.766 228.066 341.612 229.308 340.355 230.853C339.918 231.254 339.665 231.453 339.416 231.989C338.058 233.674 336.776 235.125 335.393 236.884C333.406 239.344 331.521 241.495 329.509 243.952Z" fill="#1F4C6E"/>
<path d="M355.205 213.643C354.752 214.12 354.443 214.297 353.869 214.503C353.967 209.189 358.339 207.129 362.252 204.431C360.188 207.421 357.769 210.382 355.205 213.643Z" fill="#1F4C6E"/>
<path d="M363.332 203.48C363.445 203.754 363.281 204.079 362.833 204.441C362.717 204.163 362.886 203.847 363.332 203.48Z" fill="#1F4C6E"/>
<path d="M366.268 200.44C366.381 200.702 366.228 201.027 365.796 201.391C365.678 201.121 365.84 200.812 366.268 200.44Z" fill="#1F4C6E"/>
<path d="M365.286 201.45C365.395 201.716 365.237 202.037 364.797 202.392C364.683 202.119 364.85 201.812 365.286 201.45Z" fill="#1F4C6E"/>
<path d="M364.281 202.461C364.404 202.723 364.26 203.054 363.834 203.436C363.706 203.167 363.859 202.849 364.281 202.461Z" fill="#1F4C6E"/>
</svg>
